<?xml version="1.0" encoding="UTF-8"?><svg id="b" xmlns="http://www.w3.org/2000/svg" width="466.076" height="246.917" viewBox="0 0 466.076 246.917"><defs><style>.e{fill:#fff;}.f{fill:#a095c1;}.g{fill:#a98a75;}.h{fill:#7abee6;}.i{fill:#211715;}.j{fill:#b3b3b3;}.k{fill:#645d5c;}.l{fill:#febe69;}</style></defs><g id="c"><g id="d"><path class="e" d="M430.064,95.811c-.251-.45-.417-.97-.465-1.556.36-.791.902-2.24,1.346-3.717l.397.066c.919.153,1.863-.004,2.701-.35,1.031.304,1.805.533,1.805.533,1.433.425,2.16,2.163,1.88,3.632-.273,1.428-1.344,2.677-2.715,3.162-1.785.632-3.991-.059-4.947-1.771Z"/><path class="e" d="M364.504,90.619c.207-.18.442-.329.704-.439,0,0,.404-.17,1.013-.422,1.139.815,2.731,1.293,4.21.91.443,1.493,1.023,3.108,1.773,4.778-.968,1.841-3.229,2.763-5.212,2.296-1.607-.378-2.97-1.654-3.455-3.231-.415-1.35-.065-2.998.967-3.892Z"/><path class="e" d="M431.783,71.936c1.002-.967,2.355-1.333,3.513-1.295,2.52.083,3.595,1.444,4.059,2.243,1.383,2.386,1.334,6.788.416,9.513-.65,1.93-1.717,4.883-4.298,7.004-1.064.874-2.63,1.452-4.13,1.202l-.397-.066c-.472,1.573-1.056,3.114-1.413,3.863-.996,2.722-6.304,11.958-13.159,16.205.358,1.998.848,3.998,1.909,5.729,1.56,2.523,5.775,4.658,10.039,6.495-.08,1.197-.166,2.463-.166,2.463-.064.867-.132,1.772-.204,2.712l-2.427.74-5.772,1.76c-12.583,3.338-25.89,1.25-38.737-.855l-3.306-.485s-.795-.117-2.016-.296c.057-2.965.122-5.693.2-8.116,3.568-1.181,6.643-2.28,8.519-3.528.35-.24.78-.41,1.01-.78.14-.24.2-.53.25-.81.25-1.439.51-2.868.759-4.307-3.237-1.609-6.161-4.112-8.953-7.438-3.735-4.45-5.866-9.247-7.046-13.223-1.597.414-3.326-.176-4.475-1.111-2.59-2.11-3.67-5.058-4.329-6.985-.931-2.721-.999-7.123.374-9.515.46-.801,1.529-2.167,4.049-2.261,1.158-.043,2.512.316,3.518,1.279,0,0,.193-27.218,31.676-27.218s30.538,27.08,30.538,27.08Z"/><path class="e" d="M331.393,54.257c1.037-.996,2.434-1.369,3.628-1.326,2.6.093,3.706,1.5,4.182,2.326,1.42,2.466,1.358,7.008.402,9.818-.677,1.99-1.785,5.034-4.454,7.216-1.1.899-2.719,1.491-4.266,1.229l-.406-.069c-.495,1.621-1.102,3.21-1.473,3.982-.952,2.579-5.676,10.824-11.938,15.528v2.295c-4.276,4.708-10.003,8.813-15.317,12.694l-2.569.104c-5.46-3.443-10.504-7.381-15.025-11.732v-1.713c-3.209-1.67-6.117-4.203-8.894-7.53-3.842-4.603-6.028-9.559-7.234-13.665-1.649.423-3.432-.191-4.614-1.159-2.667-2.185-3.773-5.23-4.447-7.221-.953-2.811-1.011-7.353.412-9.818.477-.826,1.584-2.232,4.184-2.322,1.195-.042,2.591.333,3.627,1.33,0,0-5.039-27.107,31.915-27.107s32.287,27.138,32.287,27.138Z"/><path class="f" d="M375.57,136.457c.036-2.695.077-5.266.123-7.679l5.321.872c15.695,2.572,32.078,5.118,46.988-2.225-1.419,18.714-4.227,52.121-7.292,76.608,0,0-.044.466-.108,1.156-6.34.829-13.244-.118-18.503,3.318-.848.554-1.553,1.595-1.333,2.896.149.884.935,1.475,1.818,1.714l-2.276-1.195c-1.119-.588-4.499-.632-6.745-.723-6.089-.246-14.166-.351-19.077-3.642.686-.523,1.452-.941,2.28-1.236-.431-.16-1.085-.385-1.865-.647.024-.687.038-1.114.038-1.114.339-19.915.357-47.605.631-68.102Z"/><path class="e" d="M400.766,211.403c-.22-1.301.485-2.341,1.333-2.896,6.549-4.278,15.65-1.76,23.036-4.336,2.01-.701,4.502-1.961,5.93-2.885,1.48,1.322,2.888,3.367,3.777,5.1,2.106,4.108,3.524,8.559,4.224,13.121-5.875,3.621-7.466,4.423-11.597,9.38-3.471,4.165-6.524,8.98-11.324,11.5-1.457.765-3.026,1.288-4.587,1.807-2.461.818-5.416,1.583-7.246-.842-3.299,1.348-8.284.373-9.249-2.243-.362.158-.704.292-1.08.411-1.572.499-3.149.075-3.946-1.735-.516-1.172-.321-2.59.56-3.47.931-.931,2.464-1.543,3.609-2.358-2.806,1.521-4.751,1.308-5.68-1.14-.025-.066-.048-.133-.061-.204l-1.982-.384c-.868-.168-2.093-.346-2.939-.56-3.299-.833-6.602-2.07-8.759-4.702-.498-.607-.959-1.013-1.736-1.124-.98-.14-3.778-.28-4.967-.462,0,0-.26-.04-.745-.115,1.426-5.176,3.07-9.748,4.795-12.942.595-1.101,1.397-2.04,2.357-2.772,4.903,3.294,12.982,3.399,19.073,3.645,2.246.091,5.625.135,6.745.723"/><path class="e" d="M302.067,120.044c-.491.042-.983.068-1.476.078-2.581.052-6.821-1.084-9.161-2.366,2.845-3.683,5.766-7.322,8.762-10.915,4.408,3.014,7.531,6.177,11.37,10.216-2.851,1.672-6.138,2.7-9.495,2.987Z"/><path class="g" d="M362.757,196.647c-.147-28.224-.364-69.818-.364-69.818-1.602-2.428-3.708-5.058-6.095-7.516-2.932-3.002-5.561-5.138-9.088-7.022-8.154-4.351-15.815-5.368-25.193-9.136-2.814,5.064-5.586,10.173-9.441,14.97-.345-.364-.684-.721-1.017-1.072-3.265,1.92-7.105,2.991-10.967,3.069-2.581.052-6.821-1.084-9.161-2.366-.552.714-1.101,1.43-1.646,2.148-4.554-4.944-8.859-10.062-12.893-15.341-11.046,3.381-16.682,6.145-26.464,11.079-1.887.952-5.212,3.025-7.708,5.785-3.095,3.422-5.82,8.254-6.87,11.165-.18.502-.355.984-.525,1.449.004,2.824.004,5.228.004,5.228v82.84h127.563l-.133-25.461Z"/><path class="i" d="M323.213,105.756c7.005,2.612,14.457,4.108,21.214,7.363,6.716,3.235,12.124,8.548,16.239,14.72,1.421,2.132,4.887.131,3.454-2.019-4.384-6.576-10.139-12.444-17.281-15.963-7.189-3.542-15.086-5.17-22.563-7.958-2.415-.9-3.458,2.964-1.063,3.857h0Z"/><path class="e" d="M277.102,103.979l7.056-7.655c4.521,4.351,9.565,8.289,15.025,11.732-3.222,3.896-6.356,7.847-9.4,11.849-4.38-4.755-8.53-9.671-12.434-14.732"/><path class="e" d="M322.279,101.111c-1.977-2.785-2.8-3.564-5.209-5.854-4.276,4.708-10.003,8.813-15.317,12.694,3.976,2.954,6.986,6.127,10.822,10.174,4.098-5.099,6.972-10.551,9.974-15.926"/><path class="i" d="M278.516,105.393l7.056-7.655h-2.828c4.722,4.523,9.908,8.546,15.43,12.044l-.405-3.141c-3.319,4.019-6.554,8.106-9.713,12.253l3.141-.405c-4.351-4.733-8.501-9.645-12.434-14.732-.661-.855-2.133-.695-2.828,0-.844.844-.663,1.971,0,2.828,3.933,5.086,8.083,9.998,12.434,14.732.961,1.045,2.404.563,3.141-.405,2.952-3.875,5.985-7.688,9.088-11.444.833-1.009.761-2.403-.405-3.141-5.244-3.322-10.136-7.124-14.62-11.419-.756-.724-2.082-.81-2.828,0-2.352,2.552-4.704,5.104-7.056,7.655-1.742,1.89,1.079,4.726,2.828,2.828h0Z"/><path class="i" d="M324.006,100.101c-1.648-2.308-3.47-4.308-5.522-6.258-.757-.72-2.082-.814-2.828,0-4.386,4.784-9.694,8.572-14.912,12.381-1.289.941-1.262,2.509,0,3.454,3.838,2.875,7.129,6.392,10.417,9.861.683.721,2.165.832,2.828,0,4.039-5.066,7.141-10.691,10.286-16.331,1.255-2.25-2.198-4.27-3.454-2.019-2.968,5.321-5.849,10.74-9.661,15.522h2.828c-3.54-3.734-7.099-7.394-11.227-10.487v3.454c5.485-4.004,11.111-7.978,15.722-13.006h-2.828c1.797,1.709,3.453,3.427,4.896,5.449.627.878,1.744,1.298,2.736.718.868-.507,1.348-1.853.718-2.736h0Z"/><path class="i" d="M293.419,120.77c3.014,1.028,6.137,1.567,9.315,1.206,3.401-.386,6.657-1.4,9.645-3.082,2.243-1.263.229-4.719-2.019-3.454-2.424,1.364-5.154,2.297-7.931,2.568s-5.326-.202-7.947-1.096c-1.022-.349-2.186.4-2.46,1.397-.301,1.096.371,2.11,1.397,2.46h0Z"/><path class="j" d="M337.415,32.692c-.802-3.879-2.084-7.588-3.781-10.817-6.572-12.504-20.582-19.851-34.458-19.858-9.132-.004-16.921,2.549-23.363,7.483-2.772,2.123-4.821,4.339-6.485,8.31,0,0-1.033.089-2.311.194-4.674,4.811-7.166,13.622-6.919,22.558.035,3.834.331,8.24,1.553,12.698.526-.201,1.157-.339,1.914-.365,1.357-.047,2.974.443,4.028,1.77.769-4.817.662-11.076,6.58-18.04,1.226-1.442,4.682-2.721,7.856-3.997,3.021-1.214,12.571-1.228,16.404-1.041,7.99-1.197,18.427-.176,24.216,4.673,1.651,1.383,3.584,3.05,4.721,4.689,2.705,3.896,3.34,7.924,3.631,13.752,1.048-1.331,2.665-1.819,4.021-1.77.682.024,1.26.139,1.752.31,1.976-6.214,2.068-13.649.641-20.549Z"/><path class="i" d="M268.606,52.811c-2.228-1.99-5.38-2.46-8.107-1.218-1.972.898-3.171,2.752-3.727,4.79-1.296,4.751-.077,10.301,2.643,14.354,1.842,2.744,4.739,5.208,8.266,4.752,1.071-.138,2-.82,2-2,0-.973-.921-2.139-2-2-2.625.339-4.371-1.825-5.508-3.926-.943-1.741-1.662-3.745-1.831-5.725-.166-1.95-.16-4.301.999-5.977-.278.401.503-.473.346-.354.347-.264.717-.421,1.135-.515,1.038-.235,2.147-.077,2.957.647,1.915,1.71,4.753-1.109,2.828-2.828h0Z"/><path class="i" d="M332.807,55.671c.766-.683,1.82-.867,2.812-.674.475.093.893.252,1.281.548-.169-.129.618.753.345.355,1.154,1.681,1.161,4.025.992,5.978-.171,1.98-.893,3.982-1.838,5.723-1.139,2.099-2.889,4.26-5.513,3.918-1.073-.14-2,1.019-2,2,0,1.197.924,1.86,2,2,5.766.751,9.287-5.504,10.728-10.158,1.284-4.148,1.278-10.663-2.789-13.332-2.737-1.796-6.466-1.308-8.846.813-1.926,1.716.911,4.537,2.828,2.828h0Z"/><path class="i" d="M329.155,70.563c-.347,1.66-.862,3.288-1.465,4.873-.202.532-.434,1.048-.652,1.574-.214.516.109-.213-.064.151-.07.148-.136.297-.207.444-.998,2.082-2.243,4.058-3.573,5.941-3.145,4.453-7.445,9.302-12.97,10.597-2.505.587-1.445,4.445,1.063,3.857,6.388-1.498,11.309-6.837,15.012-11.949,1.452-2.004,2.804-4.119,3.883-6.349.619-1.278.723-1.58,1.196-2.77.683-1.718,1.255-3.496,1.633-5.307.525-2.512-3.33-3.586-3.857-1.063h0Z"/><path class="i" d="M265.464,71.481c2.745,12.07,11.811,25.246,24.86,27.216,1.067.161,2.15-.268,2.46-1.397.26-.945-.322-2.298-1.397-2.46-11.757-1.775-19.599-13.573-22.066-24.423-.571-2.509-4.428-1.447-3.857,1.063h0Z"/><path class="i" d="M266.45,15.783c-4.514,4.054-6.776,10.252-7.74,16.101-1.154,7-.854,14.548.883,21.427.63,2.494,4.489,1.437,3.857-1.063-1.551-6.142-1.91-13.036-.883-19.3.854-5.209,2.679-10.715,6.711-14.336,1.919-1.724-.917-4.545-2.828-2.828h0Z"/><path class="i" d="M281.496,30.7c-2.552.824-5.269,1.786-7.447,3.393s-3.781,4.177-4.994,6.551c-2.068,4.044-2.7,8.319-3.287,12.761-.142,1.073,1.021,2,2,2,1.198,0,1.858-.924,2-2,.461-3.485.961-7.144,2.593-10.447.931-1.886,2.186-4.275,3.904-5.562,1.819-1.363,4.157-2.149,6.295-2.839,2.44-.787,1.396-4.651-1.063-3.857h0Z"/><path class="i" d="M321.234,37.675c2.471,2.027,4.779,4.228,6.031,7.148,1.22,2.846,1.509,6.002,1.692,9.058.064,1.078.873,2,2,2,1.033,0,2.065-.916,2-2-.209-3.507-.568-7.079-1.931-10.35-1.496-3.591-3.988-6.242-6.963-8.684-.834-.685-2.012-.817-2.828,0-.706.706-.839,2.14,0,2.828h0Z"/><path class="i" d="M289.817,32.06c.068-.299.163-.582.255-.874.135-.428-.155.289.031-.08.08-.158.155-.318.239-.473.292-.538.636-1.046,1.002-1.536.046-.062.092-.123.139-.184-.141.182-.166.215-.077.102.113-.138.223-.28.336-.419.106-.13.214-.26.323-.388.235-.275.478-.543.733-.799.284-.285.582-.557.894-.811.125-.102.405-.239-.062.043.094-.057.184-.137.274-.201.194-.138.393-.271.594-.398.451-.284.919-.539,1.399-.771.154-.075.31-.146.467-.216.069-.031.139-.061.208-.091-.216.091-.255.108-.117.052.337-.125.67-.258,1.009-.376.986-.343,1.745-1.385,1.397-2.46-.316-.976-1.402-1.765-2.46-1.397-2.384.828-4.637,1.995-6.432,3.799-.746.749-1.399,1.594-2.034,2.436-.894,1.186-1.644,2.521-1.976,3.98-.231,1.018.311,2.213,1.397,2.46,1.017.232,2.212-.306,2.46-1.397h0Z"/><path class="i" d="M296.726,33.513c.94-.662,1.927-1.271,2.989-1.719-.261.11.033-.007.146-.05.121-.045.242-.089.364-.131.248-.086.498-.165.75-.239.51-.149,1.027-.27,1.545-.39.809-.188,1.618-.37,2.435-.521.502-.093,1.005-.177,1.51-.251.132-.019.264-.038.396-.056-.225.03-.004.002.096-.01.381-.045.761-.088,1.143-.128,1.037-.107,2.052-.843,2-2-.044-.992-.885-2.115-2-2-4.651.479-9.494,1.299-13.392,4.041-.854.601-1.337,1.776-.718,2.736.547.848,1.821,1.361,2.736.718h0Z"/><path class="i" d="M338.833,53.348c2.211-7.5,1.957-15.713.036-23.247-1.846-7.237-5.512-13.884-11.021-18.973-10.946-10.111-27.303-13.68-41.522-9.267-7.755,2.407-15.43,7.253-18.725,14.939-.425.992-.295,2.144.718,2.736.842.493,2.308.281,2.736-.718,1.286-3.001,3.069-5.444,5.628-7.479s5.468-3.697,8.506-4.861c6.422-2.459,13.66-3.11,20.431-1.918,13.205,2.325,24.553,11.16,28.675,24.098,2.406,7.553,2.938,15.972.682,23.625-.729,2.474,3.13,3.531,3.857,1.063h0Z"/><path class="i" d="M293.136,81.666c2.021,1.068,4.196,1.524,6.483,1.511,2.374-.014,4.719-.503,6.615-1.979.83-.646.729-2.16,0-2.828-.88-.808-1.943-.689-2.828,0,.679-.528-.112.044-.333.159-.176.092-.646.222-.056.046-.181.054-.357.137-.537.195-.492.158-.995.259-1.504.342.285-.047.173-.022-.047,0-.148.015-.295.027-.443.036-.356.023-.712.032-1.069.029-.319-.002-.638-.013-.957-.035-.146-.01-.292-.022-.438-.037-.124-.013-.591.014-.115-.01-.435.022-.99-.188-1.405-.313-.197-.059-.389-.13-.583-.196-.475-.163.38.186-.05-.017-.241-.114-.478-.232-.714-.357-.924-.489-2.217-.265-2.736.718-.489.925-.27,2.214.718,2.736h0Z"/><path class="i" d="M298.444,66.611c.274,1.047.537,2.111.694,3.183l-.071-.532c.019.147.027.292.012.439l.071-.532c-.01.068-.025.132-.048.198l.202-.478c-.02.046-.042.085-.07.127l.313-.405c-.033.04-.064.07-.104.102l.405-.313c-.081.052-.165.093-.252.133l.478-.202c-.139.058-.276.1-.425.124l.532-.071c-.134.016-.265.015-.399,0l.532.071c-.15-.021-.298-.058-.448-.078-.266-.083-.532-.095-.798-.036-.266.012-.514.091-.744.237-.415.243-.811.718-.919,1.195-.117.512-.091,1.087.202,1.541.26.404.695.852,1.195.919.375.051.739.145,1.12.162.602.027,1.157-.161,1.693-.408.671-.309,1.197-.932,1.375-1.654.152-.614.089-1.125-.015-1.74-.173-1.026-.409-2.042-.673-3.048-.126-.483-.491-.944-.919-1.195s-1.061-.357-1.541-.202c-1.042.337-1.681,1.376-1.397,2.46h0Z"/><path class="i" d="M281.906,57.489c-.532,1.727-.188,5.701,3.085,6.041,4.325-.024,4.558-4.828,3.103-7.088-1.191-1.85-4.696-2.621-6.187,1.047Z"/><path class="i" d="M316.676,57.506c.531,1.728.183,5.701-3.09,6.038-4.325-.028-4.553-4.833-3.096-7.091,1.193-1.849,4.699-2.616,6.187,1.053Z"/><path class="i" d="M310.499,77.365c.174.168.334.347.484.536l-.313-.405c.355.459.63.97.856,1.504l-.202-.478c.076.183.148.368.215.554.062.26.181.487.358.68.141.218.328.389.561.515.23.146.477.225.744.237.266.06.532.048.798-.036.484-.157.951-.457,1.195-.919.24-.455.383-1.039.202-1.541-.465-1.288-1.072-2.512-2.069-3.477-.373-.36-.892-.586-1.414-.586-.275-.01-.532.047-.771.172-.248.081-.463.219-.644.414-.35.381-.61.882-.586,1.414.024.525.199,1.04.586,1.414h0Z"/><path class="i" d="M414.442,111.137c.415,2.262,1.004,4.659,2.353,6.566,1.097,1.549,2.633,2.718,4.232,3.712,3.627,2.253,7.702,3.744,11.632,5.37.999.413,2.199-.447,2.46-1.397.316-1.15-.395-2.046-1.397-2.46-3.475-1.438-7.029-2.788-10.27-4.719-.368-.219-.731-.448-1.086-.687-.155-.104-.309-.211-.461-.32.012.009-.487-.372-.283-.209-.29-.232-.569-.478-.834-.738-.136-.134-.265-.274-.396-.413-.096-.103-.268-.316-.092-.086-1.231-1.606-1.645-3.739-2.001-5.681-.195-1.063-1.484-1.665-2.46-1.397-1.118.307-1.592,1.394-1.397,2.46h0Z"/><path class="i" d="M374.652,123.263c3.059-1.001,6.174-1.96,9.078-3.367,1.216-.589,2.777-1.341,3.463-2.537.466-.812.52-1.848.68-2.751.163-.918.326-1.835.486-2.753.179-1.027-.274-2.205-1.397-2.46-.972-.221-2.268.295-2.46,1.397-.139.798-.281,1.596-.422,2.394-.042.234-.283,2.313-.429,2.336.023-.004.158-.373.222-.317-.011-.01-.291.175-.318.192-.216.135-.426.277-.646.407-.488.289-.995.545-1.509.785-.133.062-.267.123-.402.183-.041.018-.482.21-.265.117.208-.089-.298.122-.284.116-.15.061-.301.121-.452.18-.641.251-1.287.488-1.935.718-1.483.525-2.979,1.013-4.474,1.502-.993.325-1.74,1.398-1.397,2.46.321.991,1.396,1.745,2.46,1.397h0Z"/><path class="j" d="M389.132,22.63c-12.57,3.691-22.996,14.32-25.54,26.959-.89,4.39-.784,11.892.067,15.385.479,1.963,1.029,4.16,2.097,5.84.095-.009.194-.015.294-.019,1.444-.054,3.193.518,4.193,2.107,4.19-2.562,9.14-5.882,13.717-9.481l6.95.465c9.897-3.133,17.735-9.023,23.774-17.124,1.087,3.944,2.594,8.829,3.84,11.189,1.793,3.397,7.272,10.848,11.613,12.134l3.108.921c.678-.278,1.395-.385,2.049-.363.752.025,1.376.163,1.893.367,2.471-6.26,1.13-16.484.058-21.631-.539-2.621-1.422-5.154-2.594-7.557-1.621-3.342-3.743-6.724-6.613-9.254,0,0-2.818-2.484-5.636-4.968l-.272-.177c-2.067-1.346-4.318-2.503-6.774-3.517-4.39-1.689-9.342-2.441-14.994-2.621-3.829-.202-7.618.286-11.23,1.346Z"/><path class="i" d="M433.197,73.351c.723-.648,1.72-.828,2.661-.65.479.091.832.223,1.228.521-.209-.157.609.747.315.319,1.099,1.599,1.131,3.854.971,5.758s-.851,3.844-1.755,5.52c-1.089,2.02-2.753,4.107-5.276,3.785-1.073-.137-2,1.017-2,2,0,1.195.924,1.863,2,2,5.619.716,9.041-5.372,10.433-9.913,1.242-4.051,1.212-10.391-2.76-12.984-2.678-1.748-6.325-1.266-8.646.815-1.921,1.722.916,4.543,2.828,2.828h0Z"/><path class="i" d="M429.598,87.722c-.332,1.61-.826,3.189-1.406,4.726-.195.517-.422,1.011-.628,1.527s.117-.232-.054.133c-.067.143-.131.288-.199.431-.961,2.02-2.163,3.938-3.447,5.767-3.027,4.31-7.166,9.012-12.501,10.278-2.504.594-1.444,4.452,1.063,3.857,6.202-1.472,10.971-6.667,14.555-11.643,1.402-1.946,2.706-3.998,3.747-6.163.614-1.277.692-1.518,1.159-2.702.658-1.666,1.207-3.391,1.569-5.147.518-2.512-3.337-3.587-3.857-1.063h0Z"/><path class="i" d="M367.879,88.811c2.698,11.713,11.53,24.473,24.201,26.356,1.067.159,2.15-.267,2.46-1.397.259-.943-.322-2.301-1.397-2.46-11.379-1.691-18.99-13.068-21.407-23.562-.578-2.507-4.435-1.446-3.857,1.063h0Z"/><path class="i" d="M393.629,98.573c1.971,1.035,4.089,1.477,6.316,1.458,2.318-.02,4.604-.504,6.45-1.949.828-.648.73-2.158,0-2.828-.878-.806-1.945-.691-2.828,0,.68-.533-.088.03-.309.147-.167.088-.646.238-.039.039-.175.057-.344.133-.52.19-.222.072-.446.133-.673.186-.102.024-.714.216-.783.15.073.069.38-.043-.028-.001-.143.014-.286.027-.429.036-.345.023-.69.033-1.036.031-.309-.001-.619-.011-.927-.031-.142-.009-.283-.02-.425-.034-.135-.013-.579.02-.095-.006-.421.023-.96-.18-1.362-.299-.19-.056-.379-.119-.565-.189-.061-.023-.121-.049-.182-.07-.348-.123.457.216.148.061-.231-.115-.464-.224-.693-.344-.926-.486-2.216-.267-2.736.718-.487.922-.271,2.217.718,2.736h0Z"/><path class="i" d="M398.708,83.93c.268,1.014.526,2.045.681,3.083l-.071-.532c.018.142.027.283.013.426l.071-.532c-.01.066-.024.128-.046.192l.202-.478c-.02.045-.04.083-.067.123l.313-.405c-.032.039-.062.068-.101.1l.405-.313c-.078.05-.16.091-.244.13l.478-.202c-.134.056-.268.098-.412.121l.532-.071c-.13.016-.257.015-.387,0l.532.071c-.323-.044-.642-.103-.966-.146-.469-.062-1.097.268-1.414.586-.347.347-.608.916-.586,1.414.023.517.193,1.054.586,1.414l.405.313c.312.181.648.272,1.009.273l.037.005-.532-.071c.37.058.737.151,1.114.154.601.005,1.159-.17,1.689-.438.642-.324,1.153-.95,1.304-1.659.13-.608.076-1.089-.031-1.696-.173-.984-.399-1.96-.655-2.926-.128-.483-.489-.944-.919-1.195s-1.061-.357-1.541-.202c-.484.157-.951.457-1.195.919-.253.479-.343,1.008-.202,1.541h0Z"/><path class="i" d="M382.783,75.123c-.511,1.675-.167,5.525,3.005,5.846,4.191-.034,4.404-4.69,2.988-6.876-1.159-1.79-4.558-2.528-5.993,1.031Z"/><path class="i" d="M416.348,75.049c.519,1.673.192,5.524-2.979,5.859-4.192-.016-4.425-4.671-3.019-6.863,1.151-1.795,4.546-2.548,5.998,1.004Z"/><path class="i" d="M423.14,25.695c-6.443-4.139-13.56-5.936-21.149-6.342-6.434-.344-12.573.609-18.475,3.253-10.918,4.891-20.086,15.342-22.013,27.348-1.09,6.794-.945,14.606,2.007,20.935.457.979,1.866,1.227,2.736.718,1.004-.587,1.176-1.754.718-2.736-2.351-5.04-2.316-11.335-1.746-16.746.554-5.261,2.822-10.285,5.911-14.533,6.484-8.916,17.433-14.672,28.509-14.338,3.701.112,7.395.409,11.001,1.283,3.758.912,7.232,2.524,10.482,4.612,2.172,1.396,4.18-2.065,2.019-3.454h0Z"/><path class="i" d="M410.578,93.341c.344.613.652,1.244.926,1.891l-.202-.478c.321.769.591,1.556.808,2.36.131.484.487.943.919,1.195.429.251,1.061.357,1.541.202.484-.157.951-.457,1.195-.919l.202-.478c.095-.354.095-.709,0-1.063-.016-.118-.033-.236-.049-.354-.064-.459-.54-.973-.919-1.195-.429-.251-1.061-.357-1.541-.202-.484.157-.951.457-1.195.919l-.202.478c-.095.354-.095.709,0,1.063.016.118.033.236.049.354l3.857-1.063c-.443-1.643-1.103-3.245-1.935-4.729-.243-.434-.719-.788-1.195-.919-.479-.132-1.116-.072-1.541.202-.924.596-1.265,1.759-.718,2.736h0Z"/><path class="i" d="M370.983,70.66c-2.187-1.943-5.265-2.396-7.934-1.175-1.922.88-3.094,2.696-3.631,4.686-1.247,4.622-.055,10.017,2.601,13.951,1.803,2.67,4.635,5.072,8.073,4.618,1.071-.141,2-.818,2-2,0-.971-.921-2.142-2-2-2.521.333-4.199-1.739-5.297-3.754-.911-1.671-1.616-3.601-1.784-5.511s-.146-4.159.941-5.764c-.256.378.057-.057.114-.118.006-.006.425-.38.196-.206.355-.271.668-.402,1.083-.497.981-.225,2.038-.086,2.808.598,1.919,1.704,4.758-1.115,2.828-2.828h0Z"/><path class="i" d="M435.315,92.716c.016.005.169.046.169.057,0,.027-.476-.243-.238-.094.085.053.464.313.161.079-.298-.23.018.032.087.105.04.042.075.09.116.13.134.129-.291-.441-.128-.159.059.103.126.2.181.306.01.019.088.146.078.161-.006.009-.182-.499-.1-.228.08.264.152.519.19.794l-.071-.532c.034.303.034.602-.003.905l.071-.532c-.031.207-.075.41-.137.609-.029.095-.065.187-.098.28-.071.198.232-.496.04-.117-.098.193-.214.37-.333.55-.189.286.32-.359.069-.093-.068.072-.131.148-.201.219s-.141.139-.216.205c-.128.113-.382.239.097-.064-.168.106-.326.222-.502.316-.087.046-.182.081-.267.13.501-.289.274-.114.103-.058-.231.075-.467.125-.707.16l.532-.071c-.381.046-.757.045-1.138-.001l.532.071c-.171-.025-.341-.056-.509-.099-.1-.026-.2-.055-.298-.088-.078-.026-.378-.148-.052-.01.337.143.01-.001-.044-.028-.077-.039-.153-.081-.227-.125s-.145-.094-.219-.138c-.301-.181.365.301.074.062-.421-.346-.849-.586-1.414-.586-.491,0-1.076.218-1.414.586-.674.734-.863,2.119,0,2.828,1.135.933,2.408,1.466,3.882,1.556,1.249.077,2.626-.292,3.647-1.023,1.152-.824,1.971-1.878,2.458-3.211.402-1.101.414-2.454.014-3.558-.541-1.494-1.578-2.663-3.119-3.153-.997-.317-2.227.372-2.46,1.397-.249,1.092.329,2.121,1.397,2.46h0Z"/><path class="i" d="M364.199,88.453c-2.492,1.105-3.407,4.501-2.476,6.914,1.036,2.686,3.687,4.687,6.646,4.482,1.723-.119,3.355-.801,4.571-2.045.732-.749.802-2.092,0-2.828-.791-.726-2.047-.799-2.828,0-.113.116-.232.221-.351.331-.163.133-.123.103.12-.09-.065.047-.132.092-.199.136-.135.087-.274.167-.418.241l-.108.054c-.194.089-.145.07.146-.057-.122-.006-.335.12-.457.155-.155.044-.313.074-.47.11-.392.089.497-.039-.007-.004-.14.01-.281.014-.421.011-.08-.002-.161-.005-.241-.011-.218-.021-.16-.01.172.032-.139-.055-.32-.058-.467-.096-.111-.029-.221-.063-.33-.1-.072-.025-.144-.052-.215-.081.3.13.355.15.163.061-.134-.075-.271-.142-.402-.223-.069-.042-.431-.342-.176-.105.265.247-.104-.093-.152-.137-.113-.103-.222-.212-.325-.326-.052-.057-.102-.115-.151-.174.192.256.226.299.102.131-.063-.096-.13-.189-.19-.287-.08-.131-.147-.268-.22-.403-.088-.192-.067-.138.063.162-.028-.071-.054-.143-.079-.216-.045-.135-.084-.273-.114-.412-.042-.193.023-.443.004.118.009-.28-.022-.559-.005-.842.023-.386-.099.465-.01.116.034-.135.061-.271.103-.405.021-.066.043-.132.067-.196.076-.193.049-.129-.082.193.079-.102.126-.247.196-.358.127-.202.249-.196-.077.077.096-.081.188-.199.276-.291.224-.235-.439.278-.005.009.117-.072.239-.132.364-.188.429-.19.8-.764.919-1.195.132-.479.072-1.116-.202-1.541-.275-.427-.685-.803-1.195-.919-.557-.127-1.023-.028-1.541.202h0Z"/><path class="i" d="M412.828,47.572c1.415,5.051,2.87,10.128,5.89,14.477,2.679,3.859,6.222,8.48,10.889,9.964,2.459.782,3.511-3.079,1.063-3.857-1.673-.532-3.29-2.028-4.586-3.357-1.569-1.608-2.974-3.371-4.23-5.232-2.657-3.939-3.898-8.524-5.169-13.058-.694-2.475-4.554-1.424-3.857,1.063h0Z"/><path class="i" d="M392.017,53.33c-6.027,6.754-13.65,12.109-21.271,16.907-2.173,1.368-.168,4.831,2.019,3.454,7.89-4.968,15.84-10.54,22.08-17.533,1.709-1.915-1.11-4.754-2.828-2.828h0Z"/><path class="i" d="M413.015,45.675c-5.721,7.648-13.531,13.36-22.636,16.282-2.442.783-1.398,4.647,1.063,3.857,10.172-3.264,18.649-9.595,25.027-18.12.647-.866.14-2.235-.718-2.736-1.022-.597-2.087-.15-2.736.718h0Z"/><path class="i" d="M438.989,71.849c2.55-6.226,1.741-13.783.692-20.252-1.223-7.538-4.456-15.244-10.228-20.445-1.908-1.719-4.746,1.101-2.828,2.828,5.309,4.783,8.078,11.764,9.2,18.68.941,5.804,1.591,12.552-.692,18.125-.41,1,.444,2.198,1.397,2.46,1.147.315,2.049-.393,2.46-1.397h0Z"/><path class="e" d="M438.657,234.974c2.028-9.591.657-19.865-3.815-28.588-.888-1.733-2.297-3.777-3.777-5.1-1.427.924-3.919,2.184-5.93,2.885-1.478.515-3.014.847-4.578,1.082l.153-1.219c3.185-25.44,6.092-60.506,7.444-78.74l.308-4.566.004-.062c10.022,4.288,20.565,8.485,25.942,17.957,3.252,5.727,4.154,12.448,4.995,18.98,1.385,10.755,2.771,21.511,4.156,32.266.921,9.739.753,19.732-2.049,26.112l-22.853,18.994Z"/><path class="e" d="M364.737,234.618c1.791-9.543,4.478-18.891,7.396-24.294.686-1.446,1.644-2.673,2.768-3.523l.038-2.243c.445-26.138.336-65.671.988-84.751l-13.852,6.684c-3.15,1.52-6.349,3.073-8.936,5.428-4.74,4.317-6.839,10.749-8.598,16.914-4.238,14.854-7.455,29.719-9.927,44.966-.821,3.667-2.51,12.411-3.322,17.979-.405,2.776-.665,6.447.252,9.098,1.172,3.39,3.025,5.49,6.914,7.194l26.278,6.547Z"/><path class="i" d="M427.117,122.244c5.78,2.477,11.696,4.845,16.929,8.384,5.424,3.668,9.237,8.662,11.113,14.958,2.137,7.173,2.614,14.887,3.566,22.282.525,4.074,1.05,8.148,1.574,12.222.518,4.025,1.151,8.052,1.458,12.099.318,4.2.434,8.431.131,12.636-.246,3.411-.747,6.977-2.105,10.145-.425.992-.295,2.144.718,2.736.842.493,2.308.281,2.736-.718,2.818-6.57,3.035-14.049,2.74-21.094-.352-8.396-1.801-16.766-2.874-25.094-.546-4.237-1.091-8.474-1.637-12.711-.494-3.835-.963-7.691-1.88-11.453-1.683-6.908-5.152-12.96-10.745-17.416-5.873-4.679-12.864-7.5-19.705-10.432-.992-.425-2.144-.295-2.736.718-.493.842-.281,2.309.718,2.736h0Z"/><path class="i" d="M436.323,165.765c.531,5.636.925,11.272-1.489,16.551-.824,1.802-1.812,3.523-2.596,5.344-.943,2.191-1.5,4.412-1.661,6.797-.174,2.57,3.827,2.559,4,0,.284-4.19,2.656-7.557,4.233-11.323,2.341-5.59,2.07-11.453,1.513-17.369-.101-1.075-.847-2-2-2-1.003,0-2.102.918-2,2h0Z"/><path class="i" d="M359.993,157.502c-.313,6.362-.637,12.731-.614,19.103s.424,12.732.895,19.084c.189,2.552,4.191,2.572,4,0-.471-6.352-.874-12.712-.895-19.084s.301-12.74.614-19.103c.127-2.573-3.874-2.566-4,0h0Z"/><path class="i" d="M374.9,118.089c-4.611,2.225-9.224,4.449-13.834,6.676-3.953,1.909-7.934,3.946-10.868,7.305-5.711,6.539-7.564,15.807-9.702,23.975-2.513,9.603-4.635,19.307-6.41,29.073-.711,3.913-1.366,7.827-2.151,11.725-.739,3.667-1.425,7.347-2.04,11.037-.71,4.259-1.657,8.932-.391,13.177,1.228,4.119,4.075,7.002,7.946,8.741.985.442,2.15.284,2.736-.718.5-.855.273-2.292-.718-2.736-2.943-1.322-5.157-3.176-6.108-6.351-1.023-3.415-.235-7.259.332-10.693,1.17-7.093,2.656-14.13,3.908-21.208,1.645-9.297,3.601-18.54,5.908-27.696,1.11-4.406,2.271-8.806,3.583-13.157,1.11-3.681,2.416-7.334,4.569-10.549,2.604-3.886,6.523-6.091,10.636-8.091,4.867-2.367,9.748-4.705,14.622-7.057,2.318-1.118.291-4.569-2.019-3.454h0Z"/><path class="i" d="M374.922,210.122c4.099,1.99,8.674,2.546,13.173,2.83,2.089.132,4.182.201,6.273.277.997.036,1.994.069,2.989.145.356.027.714.052,1.067.105.22.033.44.078.657.131.065.016.521.18.217.039.98.453,2.154.277,2.736-.718.505-.863.268-2.281-.718-2.736-1.664-.769-3.57-.82-5.376-.905-2.094-.098-4.19-.149-6.284-.252-4.248-.207-8.827-.482-12.717-2.37-2.306-1.119-4.337,2.329-2.019,3.454h0Z"/><path class="i" d="M367.551,225.31c1.573.226,3.157.305,4.738.451.171.016.759.166.476.059.064.024.218.12.441.367.698.773,1.381,1.473,2.215,2.105,3.062,2.324,6.833,3.17,10.53,3.865,1.06.199,2.157-.295,2.46-1.397.268-.975-.33-2.26-1.397-2.46-3.389-.638-7.181-1.281-9.824-3.702-.656-.601-1.159-1.341-1.867-1.884-.775-.595-1.613-.802-2.57-.908-.744-.082-1.491-.13-2.237-.189-.373-.029-.746-.058-1.118-.092-.19-.017-.379-.034-.569-.054-.1-.01-.696-.089-.216-.02-1.068-.153-2.149.263-2.46,1.397-.258.939.321,2.306,1.397,2.46h0Z"/><path class="i" d="M430.056,199.559c-3.12,1.975-6.544,3.322-10.225,3.724-3.773.412-7.578.329-11.339.888-3.162.47-7.852,1.598-9.322,4.801-.844,1.839-.436,4.043,1.227,5.263.756.555,1.608.863,2.538.965,1.051.115,2.141-.15,3.178.041l-.883-3.343c-4.47,3.879-9.227,7.403-13.799,11.157-1.985,1.63-4.773,3.054-5.084,5.847-.34,3.058,1.796,6.003,4.978,6.013,2.574.008,2.578-3.992,0-4-.72-.002-1.023-.682-1.029-1.368-.007-.785.598-.97,1.205-1.444,1.774-1.388,3.491-2.846,5.237-4.268,3.759-3.06,7.656-5.93,11.321-9.11,1.089-.945.561-3.076-.883-3.343-.894-.165-1.726-.19-2.631-.158-.379.014-1.576.217-1.867-.244-.345-.546,1.738-1.509,2.091-1.67,2.774-1.265,5.931-1.472,8.931-1.633,3.193-.172,6.414-.252,9.554-.916,3.107-.657,6.146-2.055,8.822-3.75,2.169-1.373.165-4.836-2.019-3.454h0Z"/><path class="i" d="M404.238,223.32c-3.035,2.02-6.108,3.978-9.229,5.862-2.894,1.746-7.452,3.397-7.247,7.475.183,3.647,3.641,5.873,7.029,4.7,2.82-.977,5.452-2.557,7.986-4.104,2.793-1.705,5.578-3.451,8.239-5.357.877-.628,1.299-1.743.718-2.736-.507-.866-1.854-1.35-2.736-.718-4.183,2.997-8.637,5.928-13.275,8.154-.433.208-.864.421-1.3.621-.352.162-.407.206-.97.375-.737.222-1.226.232-1.574-.577-.472-1.099.505-1.637,1.333-2.126,1.371-.809,2.748-1.606,4.11-2.431,3.021-1.828,5.997-3.728,8.936-5.685,2.133-1.42.132-4.886-2.019-3.454h0Z"/><path class="i" d="M395.338,242.409c1.854,1.247,4.316,1.701,6.519,1.511,1.867-.16,3.476-.77,5.122-1.627,2.984-1.554,5.881-3.4,8.54-5.463.854-.663.696-2.132,0-2.828-.843-.843-1.972-.664-2.828,0,.488-.378-.223.158-.343.245-.267.192-.536.381-.807.567-.582.401-1.172.792-1.766,1.176-1.389.897-2.803,1.763-4.257,2.552-.602.327-1.214.628-1.834.918-.351.164.17-.056-.039.014-.112.037-.221.084-.333.121-.38.127-.78.234-1.177.294-1.645.25-3.443-.035-4.78-.934-.897-.603-2.215-.173-2.736.718-.575.984-.181,2.132.718,2.736h0Z"/><path class="i" d="M404.337,244.064c3.661,2.129,8.521.059,12.014-1.555s6.248-4.419,8.659-7.365c2.282-2.788,4.386-5.746,6.98-8.263,2.16-2.096,4.757-3.602,7.307-5.169,2.189-1.346.182-4.807-2.019-3.454-2.505,1.54-5.051,3.049-7.264,5.004-2.394,2.114-4.36,4.675-6.33,7.173-2.115,2.683-4.299,5.529-7.19,7.424-1.565,1.026-3.275,1.673-5.041,2.264-1.546.518-3.55,1.386-5.097.486-2.23-1.296-4.246,2.159-2.019,3.454h0Z"/><path class="i" d="M429.651,202.7c3.981,3.688,5.907,9.614,7.016,14.779,1.196,5.569,1.211,11.386.062,16.964-.518,2.512,3.337,3.587,3.857,1.063,1.3-6.309,1.288-12.789-.062-19.09-1.246-5.817-3.575-12.404-8.044-16.544-1.886-1.747-4.722,1.074-2.828,2.828h0Z"/><path class="i" d="M366.892,205.23c3.125.955,6.273,1.893,9.343,3.019v-3.857c-2.489.949-4.521,2.577-5.828,4.924-1.208,2.168-2.119,4.535-2.951,6.867-2.071,5.811-3.501,11.85-4.647,17.904-.476,2.516,3.378,3.594,3.857,1.063,1.045-5.523,2.337-11.018,4.114-16.355.699-2.1,1.465-4.185,2.428-6.18.92-1.905,2.027-3.58,4.09-4.367,1.871-.713,1.914-3.156,0-3.857-3.069-1.125-6.218-2.063-9.343-3.019-2.467-.754-3.522,3.105-1.063,3.857h0Z"/><path class="i" d="M422.71,204.033c2.973-23.799,5.04-47.722,6.903-71.631.303-3.891.586-7.782.85-11.676.174-2.57-3.827-2.559-4,0-1.417,20.972-3.267,41.928-5.436,62.835-.708,6.831-1.465,13.657-2.316,20.471-.134,1.074,1.015,2,2,2,1.192,0,1.866-.923,2-2h0Z"/><path class="i" d="M373.904,120.349c-.701,21.803-.548,43.638-.738,65.45-.055,6.253-.121,12.507-.227,18.76-.044,2.575,3.956,2.575,4,0,.388-22.952.324-45.908.642-68.86.071-5.117.158-10.234.322-15.349.083-2.575-3.917-2.572-4,0h0Z"/><path class="i" d="M424.992,126.817c-4.473,1.364-8.827,2.696-13.517,3.15-8.439.817-16.931-.192-25.267-1.494-2.656-.415-5.308-.846-7.967-1.236-1.067-.157-2.149.265-2.46,1.397-.259.941.322,2.302,1.397,2.46,14.197,2.084,29.302,5.433,43.453,1.235,1.812-.538,3.617-1.103,5.425-1.654,2.455-.749,1.409-4.611-1.063-3.857h0Z"/><path class="i" d="M236.621,136.307c2.186-6.047,5.138-11.993,10.307-16.067,2.536-1.999,5.455-3.359,8.33-4.789,2.94-1.463,5.898-2.893,8.914-4.194,3.552-1.532,7.199-2.835,10.879-4.022,2.44-.787,1.396-4.651-1.063-3.857-6.89,2.222-13.504,5.034-19.989,8.242-3.043,1.506-6.121,2.932-8.848,4.979-3.027,2.271-5.438,5.053-7.5,8.217-2.141,3.285-3.559,6.758-4.886,10.428-.877,2.425,2.987,3.47,3.857,1.063h0Z"/><path class="e" d="M229.575,73.528c1.011-.964,2.369-1.322,3.53-1.277,2.526.099,3.596,1.47,4.056,2.274,1.372,2.401,1.296,6.814.359,9.541-.664,1.931-1.751,4.886-4.352,6.997-1.072.87-2.646,1.44-4.149,1.18l-.397-.069c-.484,1.574-1.079,3.116-1.441,3.865-1.017,2.729-6.415,11.988-13.335,16.193.038-.438.077-.068.116.166.404,2.447.853,4.962,2.144,7.072,2.166,3.513,9.478,6.275,14.907,8.52l-7.113,3.648c-4.584,2.526-9.096,4.694-22.45,4.989-11.287.249-18.397-1.31-28.811-6.236,0,0-3.153-1.841-6.686-3.905,6.556-2.344,13.129-4.014,16.283-6.128.357-.24.787-.407,1.01-.774.148-.244.201-.532.251-.812.34-1.904.679-3.809,1.017-5.708-3.498-1.614-6.62-4.252-9.584-7.827-3.718-4.485-5.826-9.308-6.984-13.301-1.604.405-3.334-.197-4.48-1.141-2.584-2.132-3.649-5.094-4.298-7.031-.916-2.734-.958-7.148.433-9.538.466-.801,1.546-2.163,4.073-2.242,1.161-.036,2.517.332,3.52,1.304,0,0-8.384-26.788,31.168-26.788s31.215,27.03,31.215,27.03Z"/><path class="e" d="M116.262,55.823c1.093-.985,2.534-1.322,3.756-1.24,2.658.179,3.744,1.655,4.204,2.515,1.373,2.569,1.162,7.215.094,10.059-.757,2.014-1.989,5.093-4.791,7.239-1.155.884-2.83,1.438-4.404,1.119l-.416-.084c-.556,1.644-1.228,3.25-1.632,4.027-.783,1.932-3.785,6.978-7.954,11.339-6.748,4.158-9.369,12.721-9.383,20.287-.037,1.291-.103,2.581-.182,3.851-14.046,4.874-28.487,2.24-40.025-8.024,3.051-1.164,6.728-2.584,6.852-2.619,2.319-.864,3.113-2.769,3.58-4.815.304-1.343.54-2.562.686-3.88-3.235-1.815-6.136-4.506-8.876-8.008-3.782-4.834-5.858-9.976-6.96-14.217-1.701.381-3.505-.305-4.684-1.334-2.658-2.322-3.691-5.473-4.317-7.532-.884-2.907-.796-7.557.739-10.032.514-.829,1.693-2.232,4.356-2.24,1.224-.004,2.64.425,3.668,1.478,0,0-11.588-30.765,33.362-30.765s32.327,32.876,32.327,32.876Z"/><path class="i" d="M113.472,72.51c-.416,1.717-.994,3.42-1.702,5.039-.105.24-.22.475-.33.713-.114.215-.213.437-.297.666.127-.297.146-.344.056-.139-.155.33-.314.657-.484.98-1.09,2.068-2.408,4.033-3.823,5.89-3.387,4.446-7.932,9.206-13.631,10.352-2.522.507-1.454,4.363,1.063,3.857,6.502-1.308,11.694-6.579,15.592-11.63,3.594-4.658,6.064-9.099,7.413-14.665.606-2.501-3.25-3.568-3.857-1.063h0Z"/><path class="e" d="M101.402,93.943c-4.017,4.56-5.657,11.163-5.668,17.142-.088,3.105-.351,6.196-.528,9.041-.289,4.694.499,9.121,3.578,12.362,3.264,3.437,6.665,5.628,11.309,3.893,2.8-1.838,7.09-2.725,10.561-3.247,5.241-.788,10.199.552,14.43,3.331,4.903-2.987,8.253-6.925,9.933-11.009,1.985-4.881,2.707-11.098,2.328-16.394-1.102-15.776-15.567-22.274-29.987-21.648-4.171.192-8.387,1.095-11.983,3.223-1.524.9-2.843,2.022-3.973,3.306Z"/><path class="e" d="M59.272,241.866c-18.18-1.839-32.165-5.326-37.982-7.172-8.198-2.603-13.506-9.027-16.619-15.341-3.368-6.829-2.872-20.236-1.84-26.691,2.494-15.59,4.085-23.729,7.078-39.085,1.223-6.276,3.524-19.379,9.167-26.954,4.177-5.607,10.972-9.703,18.595-13.129,5.645-2.536,11.744-4.705,17.571-6.846,11.582,10.483,26.148,13.202,40.311,8.287-.111,1.782-.244,3.528-.348,5.191-.289,4.694.499,9.121,3.578,12.362,2.876,3.028,5.857,5.089,9.702,4.35l1.009-.194c-5.189,2.845-9.808,6.221-13.176,12.163-1.312-2.804-2.941-5.473-4.851-7.937.927-1.766,1.228-3.855.828-5.81-.321-1.565-1.367-3.234-2.962-3.314-1.279-.065-2.346.907-3.252,1.812-2.508-2.946-6.062-5.562-9.902-5.079-4.173.524-7.195,4.872-7.055,9.075.16,4.783,3.693,9.044,7.888,11.19-.875,5.823,3.24,21.209,4.77,26.397.969,3.285,2.375,6.73,5.36,8.639,1.554.994,3.414,1.477,5.27,1.681l-.445,1.427c-7.372.762-12.714,9.504-10.026,16.412l1.223,2.984c.127,2.927.25,5.751.25,5.751.373,8.563-1.152,23.947-1.924,31.032-7.864-.046-15.342-.505-22.22-1.201Z"/><path class="e" d="M232.885,236.247c-12.34,0-35.62-.043-57.866-.091-28.463-.061-55.233-.132-55.233-.132,2.341-22.272,9.122-79.487,9.122-79.487l18.732-18.102c3.103-3.512,7-6.23,10.945-8.756,1.604-1.029,4.183-2.11,7.32-3.221,3.552,2.074,6.733,3.932,6.733,3.932,10.414,4.927,17.524,6.486,28.811,6.236,13.354-.295,17.867-2.463,22.45-4.989l7.113-3.648c5.751,2.136,11.425,4.782,16.658,7.995,4.879,2.995,8.465,7.52,10.854,12.699,1.876,4.068,3.084,8.406,4.283,12.722,2.569,9.252,5.329,18.482,6.912,27.969,1.409,8.448,2.93,19.239-.845,27.259-2.401,5.102-6.645,9.033-10.925,12.569,0,0-14.049,3.17-25.064,7.044Z"/><path class="e" d="M230.159,182.538c.795-.718,1.974-1.065,3.076-.9s2.106.829,2.61,1.735c.356.635.472,1.359.537,2.065.241,2.782-.307,5.618-1.568,8.153-.614,1.235-1.415,2.418-2.528,3.318-.952.759-1.908,1.153-3.393.532-.273,1.082-.636,2.027-.799,2.487-.875,2.216-5.771,10.076-11.929,12.952.035.282.088.599.15.96.326,1.896.855,4.039,3.377,5.432.168.053,3.457,1.614,3.712,1.728l.977.438c-.111.139-.222.278-.222.278-2.761,3.456-9.247,6.404-15.832,6.803-3.972.241-7.992,0-11.888-.81s-7.717-2.498-10.429-5.411c0,0-.312-.336-.625-.671l1.494-.627c.273-.115,3.545-1.675,3.73-1.728,2.504-1.393,3.042-3.536,3.369-5.432.026-.115.044-.22.062-.326-3.165-1.324-6.083-3.574-8.625-6.415-2.917-3.259-4.634-6.757-5.618-9.718-1.752.913-2.803.52-3.849-.315-1.113-.9-1.914-2.082-2.528-3.318-1.261-2.535-1.81-5.371-1.568-8.153.066-.706.181-1.429.537-2.065.504-.906,1.508-1.571,2.61-1.735s2.281.182,3.076.9c0,0-6.37-23.179,23.179-23.179s28.903,23.021,28.903,23.021Z"/><path class="l" d="M166.147,234.811c-1.912,3.007-3.106,6.028-4.548,10.201h88.124c-1.706-4.238-4.869-9.602-9.054-14.561-3.179-3.767-9.478-7.118-15.97-9.496-2.358,3.776-9.307,7.137-16.37,7.565-3.972.241-7.992,0-11.888-.81-4.206-.874-8.325-2.773-11.054-6.131-5.924,2.329-13.171,5.646-15.958,8.873-1.321,1.53-2.381,2.944-3.282,4.36Z"/><path class="l" d="M225.373,33.351c-1.834-1.724-4.022-3.453-6.727-5.374-1.675-1.038-3.431-1.948-5.248-2.712-4.705-1.985-9.826-2.982-15.019-2.72-17.198-1.012-33.659,11.863-37.042,28.156-.92,4.396-.565,11.198-.069,14.768.253,1.821.768,4.209,1.539,5.826l.344.722c.164-.019.338-.031.52-.037,1.093-.034,2.359.291,3.341,1.14,3.057-3.598,6.583-5.182,12.311-7.545.626-.234,1.168-.469,1.698-.744.488-.002.833-.002.833-.002-.084.675.077,1.401.703,1.727s1.689.314,2.402.325c2.55.039,4.89-.2,8.281-1.949h4.579c-.196.647,0,1.409,1.144,1.569,1.893.265,5.374-.016,8.854-2.261,2.01-1.403,4.159-4.27,4.853-5.613,1.296-2.506,2.189-4.445,2.687-7.448h2.898c.544,4.402,2.318,8.55,4.217,12.558,1.142,2.41,2.544,4.993,5.027,5.965l2.075,3.825c1.011-.964,2.369-1.322,3.53-1.277.764.03,1.394.176,1.91.39,2.495-6.273,1.217-16.496.176-21.651-.525-2.631-1.395-5.177-2.555-7.593-1.911-4.004-4.04-7.017-7.262-10.046Z"/><path class="k" d="M215.97,150.985c.642-4.507,4.316-6.441,8.378-7.017,4.264-.604,7.262.511,10.671,3.556,1,.886,2.23,2.419,2.865,4.027.979,2.479,1.478,4.185,2.043,6.787.687,3.106,1.39,5.086,3.507,7.261-3.777,1.178-7.064,1.409-10.156.116"/><path class="k" d="M180.062,183.588c-.244.098-.343-.313-.277-.568.753-2.924,2.011-5.741,3.875-8.117,2.512-3.201,6.157-5.575,10.3-5.951,1.517,2.186,3.641,4.01,5.968,5.327.492.279,1.011.544,1.574.596,0,0,10.097,0,17.555,0,.751.222,1.489.476,2.197.804,3.34,1.545,5.841,4.784,6.493,8.406l.098.544c1.158-1.045,2.316-2.09,2.316-2.09.733-.662,1.792-1.008,2.816-.919.417-2.435.67-5.098.532-8.228-.211-4.828-1.524-9.578-4.065-13.674-1.065-1.716-2.326-3.302-3.74-4.731-.569-.575-1.435-1.417-2.024-1.928-.94-.817-3.028-2.225-4.921-3.264-1.38-.757-2.817-1.405-4.298-1.927-3.273-1.155-6.731-1.671-10.189-1.671-6.826,0-12.623,1.985-17.261,5.312-5.386,3.863-11.485,10.745-11.973,21.883-.155,3.539.801,9.446.721,8.37.861.047,1.705.38,2.32.935"/><path class="i" d="M54.113,108.326c5.814,5.125,12.794,8.908,20.464,10.299,7.581,1.375,15.346.522,22.556-2.139,2.394-.884,1.359-4.751-1.063-3.857-6.508,2.402-13.558,3.39-20.43,2.139-7-1.273-13.379-4.581-18.699-9.27-1.925-1.696-4.764,1.122-2.828,2.828h0Z"/><path class="k" d="M45.944,29.69c3.166-9.994,9.612-16.535,15.398-20.555,6.445-4.479,14.401-7.02,23.664-6.722,8.831.284,15.779,2.991,21.702,7.141l4.983,4.086c6.172,5.947,11.626,15.085,11.76,28.311.045,4.46-.596,8.075-1.983,12.891-.422-.13-.903-.222-1.451-.259-1.221-.082-2.662.255-3.756,1.24l-5.077-4.295c-1.546-4.287-5.194-9.085-9.046-12.621-2.248-2.063-3.818-2.993-5.889-3.974l-6.5-1.011c-4.461,1.713-10.793,5.408-14.338,7.231-.846.435-1.801-.33-1.658-1.334.094-.661.118-1.363-.077-2.294-.201-.964-.923-1.393-1.505-1.111-4.962,2.402-12.128,8.796-16.208,13.059l-5.391,4.239c-1.028-1.053-2.444-1.482-3.668-1.478-.612.002-1.145.077-1.61.202-1.099-4.596-1.483-9.125-1.191-13.035.264-3.55.911-6.779,1.84-9.712Z"/><path class="i" d="M51.988,52.298c-2.108-2.006-5.26-2.62-7.97-1.525-2.162.873-3.48,2.699-4.148,4.884-1.473,4.812-.358,10.511,2.285,14.73,1.797,2.868,4.692,5.401,8.295,5.051,1.075-.105,2-.844,2-2,0-1.001-.918-2.105-2-2-2.7.262-4.427-2.1-5.517-4.274-.914-1.823-1.553-3.909-1.662-5.949-.065-1.216-.029-2.454.234-3.646.104-.47.222-.957.408-1.403.099-.239.243-.455.363-.682.035-.067.319-.446.039-.093.482-.607.918-.937,1.812-1.098,1.108-.199,2.209.049,3.033.833,1.865,1.774,4.698-1.049,2.828-2.828h0Z"/><path class="i" d="M117.677,57.238c.811-.678,1.965-.796,2.96-.547.386.097.839.282,1.088.468.015.011.262.248.354.336.067.069.131.141.192.216-.11-.145-.127-.163-.05-.052,1.127,1.715,1.098,4.131.86,6.095-.243,2.01-.996,3.959-1.976,5.708-1.036,1.849-3.001,4.526-5.456,4.127-1.065-.173-2.152.277-2.46,1.397-.262.954.325,2.286,1.397,2.46,6.155,1.001,9.909-4.826,11.701-9.88,1.484-4.188,1.681-10.813-2.335-13.707-2.756-1.986-6.587-1.556-9.105.55-.829.693-.716,2.112,0,2.828.821.821,1.997.695,2.828,0h0Z"/><path class="i" d="M48.309,71.362c2.417,12.442,11.296,26.142,24.568,28.575,2.517.461,3.596-3.393,1.063-3.857-11.985-2.197-19.603-14.607-21.774-25.781-.49-2.524-4.347-1.456-3.857,1.063h0Z"/><path class="i" d="M107.718,7.828C96.222-.156,80.668-1.945,67.691,3.432c-10.696,4.432-19.286,13.418-23.199,24.314-2.848,7.929-3.072,16.442-1.264,24.626.555,2.512,4.412,1.449,3.857-1.063-2.666-12.074-.016-24.992,8.337-34.307,3.256-3.631,7.156-6.685,11.524-8.868,5.855-2.927,12.446-4.019,18.952-3.684,7.185.37,13.904,2.735,19.801,6.831,2.119,1.472,4.121-1.994,2.019-3.454h0Z"/><path class="i" d="M123.552,54.83c2.307-8.291,2.58-16.963.155-25.277-1.888-6.472-5.455-12.298-10.287-16.988-1.848-1.794-4.68,1.031-2.828,2.828,4.348,4.221,7.558,9.393,9.258,15.223,2.231,7.651,1.968,15.524-.155,23.151-.691,2.484,3.167,3.544,3.857,1.063h0Z"/><path class="i" d="M77.275,82.621c1.996,1.137,4.174,1.64,6.466,1.714,2.151.07,4.682-.217,6.479-1.527.843-.614,1.344-1.765.718-2.736-.539-.835-1.832-1.376-2.736-.718-.218.159-.448.298-.689.419-.069.035-.141.063-.209.1-.204.11.47-.179.152-.064-.198.071-.395.143-.598.203-.233.069-.468.127-.706.176-.119.025-.239.047-.359.067-.236.04-.267.028-.012.005-.681.061-1.355.097-2.04.076-.33-.01-.66-.03-.989-.061-.053-.005-.655-.087-.179-.013-.136-.021-.273-.042-.409-.067-.49-.088-.975-.205-1.448-.36-.202-.066-.399-.145-.598-.219-.233-.086.44.208.148.06-.083-.042-.169-.079-.253-.12-.244-.12-.482-.253-.719-.388-.909-.518-2.228-.245-2.736.718-.502.95-.253,2.183.718,2.736h0Z"/><path class="i" d="M83.175,67.447c.22.966.425,1.942.56,2.924l-.071-.532c.034.259.067.517.105.775l-.071-.532c.025.188.037.374.012.562l.071-.532c-.013.07-.03.135-.056.201l.202-.478c-.022.047-.045.086-.076.128l.313-.405c-.021.026-.044.05-.069.071l.405-.313c-.092.069-.198.114-.303.159l.478-.202c-.125.047-.25.084-.381.106l.532-.071c-.141.018-.278.018-.419,0l.532.071c-.169-.025-.334-.073-.503-.101-.545-.091-1.047-.087-1.541.202-.415.243-.811.718-.919,1.195-.117.512-.091,1.087.202,1.541.266.412.691.835,1.195.919.381.064.738.153,1.131.183.626.048,1.227-.159,1.783-.419.671-.314,1.167-.955,1.343-1.671.152-.619.081-1.166-.018-1.786l.071.532c-.148-1.208-.378-2.405-.648-3.591-.109-.477-.504-.952-.919-1.195-.429-.251-1.061-.357-1.541-.202-1.069.346-1.647,1.366-1.397,2.46h0Z"/><path class="i" d="M66.555,57.53c-.601,1.75-.377,5.827,2.96,6.281,4.426.116,4.82-4.792,3.404-7.152-1.159-1.932-4.72-2.834-6.365.871Z"/><path class="i" d="M101.995,58.669c.487,1.785.002,5.839-3.357,6.078-4.425-.169-4.503-5.092-2.939-7.355,1.28-1.853,4.892-2.525,6.296,1.278Z"/><path class="i" d="M95.241,36.661c3.233,1.542,5.818,3.762,8.208,6.414,2.366,2.624,4.591,5.686,5.808,8.986.373,1.013,1.356,1.7,2.46,1.397.975-.268,1.772-1.442,1.397-2.46-1.449-3.93-3.873-7.419-6.642-10.533-2.634-2.963-5.618-5.542-9.212-7.256-.974-.465-2.159-.269-2.736.718-.51.872-.262,2.269.718,2.736h0Z"/><path class="i" d="M57.379,50.887c2.633-2.739,5.437-5.324,8.379-7.727,1.415-1.155,2.873-2.259,4.399-3.264.728-.479,1.471-.938,2.238-1.352.175-.095.351-.187.528-.276-.959-.657-1.351-.727-1.175-.212-.096.285.081.918.058,1.254-.141,2.054.99,4.089,3.321,3.945,1.585-.098,3.362-1.469,4.722-2.206,3.405-1.845,6.818-3.788,10.432-5.199,1.006-.393,1.704-1.342,1.397-2.46-.264-.959-1.448-1.792-2.46-1.397-3.831,1.495-7.453,3.471-11.064,5.426-.813.441-1.626.883-2.442,1.318-.164.087-1.009.399-1.064.561.522-.062.891.112,1.106.52.033-.226.055-.453.065-.682.08-1.976-.628-4.497-2.928-4.769-1.653-.195-3.436,1.207-4.752,2.074-1.701,1.12-3.322,2.363-4.905,3.642-3.055,2.47-5.96,5.141-8.683,7.974-1.784,1.856,1.04,4.689,2.828,2.828h0Z"/><path class="i" d="M56.059,108.841c1.65-.63,3.299-1.263,4.948-1.896,1.016-.389,2.116-.723,3.075-1.238,3.525-1.893,4.109-6.381,4.547-9.95.128-1.042-1.011-2.044-2-2-1.193.053-1.863.883-2,2-.031.248-.035.279-.01.092-.019.137-.04.274-.061.411-.032.204-.066.408-.102.612-.085.482-.182.961-.285,1.439-.149.695-.305,1.39-.546,2.06-.033.092-.067.182-.103.273.11-.254.12-.28.03-.079-.066.128-.125.258-.195.385-.081.147-.174.285-.26.428-.257.427.19-.165-.079.109-.102.104-.196.215-.302.316-.072.068-.145.134-.221.198.209-.155.224-.167.042-.037-.135.083-.264.172-.402.249-.057.032-.58.264-.366.185.191-.07-.045.01-.089.025-.162.057-.321.121-.482.183-.536.204-1.071.41-1.607.615-1.532.588-3.063,1.176-4.596,1.761-.974.372-1.752,1.364-1.397,2.46.308.95,1.414,1.796,2.46,1.397h0Z"/><path class="i" d="M54.329,104.86c-7.666,2.812-15.439,5.523-22.68,9.338-6.369,3.355-12.421,7.753-16.05,14.112-3.543,6.209-5.327,13.359-6.749,20.309-1.5,7.327-2.888,14.682-4.254,22.035-1.457,7.841-3.014,15.73-3.995,23.646-.841,6.784-.913,13.969.531,20.676s5.808,12.992,11.185,17.174c4.55,3.539,9.925,5.042,15.417,6.399,14.65,3.62,29.778,5.612,44.842,6.289,2.403.108,4.806.176,7.211.211,2.575.037,2.576-3.963,0-4-15.618-.227-31.252-1.952-46.511-5.313-4.379-.964-8.999-1.879-13.165-3.587-6.238-2.558-11.327-8.186-13.96-14.336-1.232-2.878-1.665-6.139-1.902-9.235-.26-3.401-.243-6.827-.024-10.229.462-7.18,2.012-14.357,3.282-21.451,1.376-7.686,2.887-15.347,4.374-23.012,1.204-6.203,2.458-12.427,4.727-18.346,1.18-3.078,2.688-6.154,4.823-8.689,2.175-2.583,4.811-4.71,7.641-6.533,6.432-4.143,13.649-6.924,20.791-9.572,1.841-.682,3.686-1.354,5.529-2.03,2.397-.879,1.361-4.746-1.063-3.857h0Z"/><path class="i" d="M40.618,161.98c-1.498,11.913-3.621,23.758-5.608,35.597-.179,1.064.28,2.153,1.397,2.46.959.263,2.28-.326,2.46-1.397,2.046-12.193,4.208-24.391,5.751-36.661.135-1.074-1.016-2-2-2-1.193,0-1.865.923-2,2h0Z"/><path class="i" d="M192.042,213.505c0,.044.104-.598.044-.363-.018.069-.028.14-.041.209-.016.087-.031.174-.047.26-.038.206-.079.412-.125.616-.091.406-.202.808-.345,1.199-.03.082-.188.467-.039.113.142-.339,0-.011-.038.066-.1.205-.211.404-.333.597-.063.099-.131.194-.197.291-.187.277.285-.335.06-.081-.166.188-.334.372-.519.542-.097.089-.2.172-.3.258-.16.137.185-.141.173-.135-.051.025-.1.072-.147.104-.118.082-.25.148-.364.235-.264.201.229-.062.225-.062-.257.024-.638.269-.9.389-.593.271-1.183.55-1.773.828-.5.235-.996.485-1.504.702-.428.183-.802.77-.919,1.195-.132.479-.072,1.116.202,1.541.275.427.685.803,1.195.919.56.128,1.018.022,1.541-.202,1.091-.466,2.149-1.013,3.228-1.507.101-.047.203-.092.305-.138.346-.157-.519.23-.285.12.388-.183.719-.325,1.068-.567.346-.239.685-.499,1-.778.946-.837,1.583-1.904,2.056-3.06.188-.46.333-.934.446-1.418.136-.586.332-1.278.332-1.875,0-1.046-.92-2.048-2-2s-2,.879-2,2h0Z"/><path class="i" d="M214.166,212.879c.311,2.37.794,4.683,2.451,6.513.45.497.993.921,1.549,1.292.315.21.644.399,1.005.52.137.046-.609-.268-.388-.164.045.021.092.041.137.062.609.275,1.213.563,1.818.847.552.26,1.102.527,1.658.779.504.228.987.354,1.541.202.464-.128.967-.486,1.195-.919.463-.876.3-2.276-.718-2.736-1.058-.479-2.101-.992-3.156-1.479-.168-.078-.337-.155-.506-.229-.171-.075-.342-.157-.519-.218.009.003.465.245.289.096-.048-.041-.119-.071-.173-.105-.111-.069-.217-.144-.326-.217-.279-.188.301.257-.036-.03-.192-.164-.374-.34-.544-.527-.074-.082-.139-.176-.217-.254-.011-.011.254.363.148.188-.037-.061-.083-.117-.123-.176-.126-.189-.242-.384-.346-.586-.047-.091-.089-.185-.134-.277-.138-.28.168.452.027.058-.161-.449-.294-.903-.396-1.37-.047-.217-.089-.435-.128-.654-.029-.161-.056-.322-.083-.484-.024-.148-.11-.755-.028-.13-.072-.552-.175-1.004-.586-1.414-.347-.347-.916-.608-1.414-.586-.517.023-1.054.193-1.414.586-.331.361-.653.903-.586,1.414h0Z"/><path class="i" d="M218.353,149.745c1.331-2.691,4.319-3.711,7.164-3.903,3.203-.216,5.886,1.045,8.207,3.207,2.521,2.349,3.386,5.903,4.124,9.154.76,3.349,1.761,6.271,4.172,8.807l.883-3.343c-3.06.93-6.049,1.325-9.086.115-1.004-.4-2.197.437-2.46,1.397-.313,1.139.389,2.059,1.397,2.46,3.641,1.45,7.547,1,11.213-.115,1.457-.443,1.933-2.238.883-3.343-2.655-2.792-2.842-6.475-3.915-10.003-.604-1.986-1.293-4.052-2.499-5.759-1.131-1.6-2.548-2.878-4.135-4.02-3.121-2.245-6.716-2.916-10.48-2.363-3.633.534-7.228,2.27-8.92,5.69-1.138,2.3,2.311,4.329,3.454,2.019h0Z"/><path class="i" d="M231.573,183.952c.359-.3,1.019-.398,1.365-.343.545.087.976.374,1.18.773.305.598.302,1.366.316,2.031.018.844-.024,1.694-.176,2.524-.31,1.692-.887,3.321-1.805,4.779-.365.58-.857,1.203-1.36,1.606-.116.093-.246.171-.37.252-.495.318.099,0-.2.115-.329.126-.286.081-.66-.019-2.49-.664-3.552,3.193-1.063,3.857,2.925.78,5.222-1.079,6.818-3.356,1.541-2.199,2.377-4.889,2.698-7.531.308-2.533.273-5.708-1.769-7.549-2.26-2.037-5.536-1.864-7.802.031-.829.693-.716,2.112,0,2.828.821.821,1.997.695,2.828,0h0Z"/><path class="i" d="M179.491,181.282c-2.264-1.894-5.543-2.066-7.802-.031-2.041,1.84-2.078,5.017-1.769,7.549.322,2.643,1.157,5.332,2.698,7.531,1.598,2.279,3.89,4.137,6.818,3.356,2.485-.663,1.431-4.522-1.063-3.857-.77.205.065.021-.333.073-.183.024.062.057-.227-.022-.286-.078-.053-.006-.207-.094-.159-.092-.322-.19-.465-.306-.504-.408-.992-1.023-1.36-1.606-.919-1.457-1.496-3.088-1.805-4.779-.144-.785-.188-1.588-.179-2.385.009-.717.002-1.522.319-2.17.195-.399.632-.675,1.18-.773.343-.062,1.005.042,1.365.343.828.692,2.017.812,2.828,0,.712-.712.832-2.132,0-2.828h0Z"/><path class="i" d="M227.237,195.523c-.115.78-.295,1.541-.528,2.294-.157.509-.457,1.057-.542,1.58-.048.297.238-.463.064-.156-.069.121-.12.256-.182.381-.133.268-.275.532-.422.793-.793,1.416-1.908,3.053-2.752,4.106-1.359,1.696-2.851,3.303-4.55,4.666-1.518,1.218-3.306,2.211-5.25,2.636-1.056.231-1.672,1.459-1.397,2.46.299,1.089,1.402,1.628,2.46,1.397,4.73-1.034,8.637-4.65,11.565-8.331,2.536-3.187,4.783-6.652,5.39-10.763.158-1.067-.266-2.149-1.397-2.46-.942-.259-2.301.322-2.46,1.397h0Z"/><path class="i" d="M177.317,196.027c1.28,4.946,3.825,9.509,7.35,13.206,3.491,3.661,8.005,6.643,13.093,7.364,1.068.151,2.148-.262,2.46-1.397.258-.937-.321-2.308-1.397-2.46-8.85-1.255-15.51-9.514-17.649-17.776-.645-2.49-4.504-1.434-3.857,1.063h0Z"/><path class="i" d="M234.937,181.952c1.297-7.997.526-16.448-3.883-23.427-4.126-6.53-10.854-11.333-18.321-13.276-13.718-3.57-28.937,2.095-35.957,14.614-3.837,6.842-4.274,14.49-3.046,22.091.172,1.067,1.5,1.661,2.46,1.397,1.135-.312,1.57-1.39,1.397-2.46-.924-5.721-.797-11.654,1.63-17.012,2.079-4.589,5.519-8.512,9.724-11.277,11.654-7.664,28.298-5.093,37.077,5.72,5.115,6.3,6.332,14.733,5.062,22.566-.173,1.065.276,2.152,1.397,2.46.954.262,2.286-.325,2.46-1.397h0Z"/><path class="i" d="M251.257,243.534c-2.287-5.384-5.625-10.652-9.584-14.963s-9.734-6.931-15.089-9.034c-1.006-.395-2.196.434-2.46,1.397-.312,1.134.388,2.064,1.397,2.46,4.809,1.889,10.041,4.3,13.533,8.238,3.608,4.069,6.624,8.919,8.749,13.921.422.994,1.889,1.213,2.736.718,1.029-.602,1.142-1.738.718-2.736h0Z"/><path class="i" d="M163.528,245.543c1.811-5.225,4.043-10.843,8.266-14.636,2.047-1.838,4.638-3.135,7.09-4.335,2.779-1.36,5.64-2.541,8.529-3.644,1.008-.385,1.703-1.347,1.397-2.46-.265-.965-1.446-1.784-2.46-1.397-3.21,1.226-6.397,2.537-9.485,4.048-2.779,1.359-5.584,2.881-7.9,4.96-4.73,4.248-7.266,10.548-9.294,16.401-.845,2.437,3.018,3.485,3.857,1.063h0Z"/><path class="i" d="M199.417,203.126c1.405,1.375,3.568,1.826,5.466,1.824s4.061-.449,5.467-1.824c.749-.733.79-2.103,0-2.828-.805-.739-2.029-.782-2.828,0-.077.075-.35.291-.015.033.348-.268-.004-.007-.101.053-.105.065-.213.124-.323.179-.012.006-.225.101-.225.106-.002-.03.543-.206.185-.083-.354.122-.709.226-1.077.295-.06.011-.119.022-.179.031-.154.024-.081.015.22-.027-.08-.028-.248.027-.331.034-.263.022-.527.032-.791.032-.242,0-.483-.008-.724-.027-.131-.01-.269-.037-.399-.039.167.003.415.063.099.006-.371-.066-.737-.16-1.092-.289-.16-.058-.417-.219.141.067-.062-.032-.126-.057-.189-.088-.122-.06-.243-.125-.359-.197-.089-.055-.171-.12-.259-.176.59.371.302.245.144.09-.748-.733-2.092-.802-2.828,0-.726.791-.799,2.046,0,2.828h0Z"/><path class="i" d="M204.543,192.83c-.049.028-.1.053-.152.075l.478-.202c-.081.033-.164.057-.25.069l.532-.071c-.083.01-.166.008-.249-.003l.532.071c-.048-.007-.096-.016-.144-.026-.216-.043-.438-.065-.655-.093-.275-.01-.532.047-.771.172-.248.081-.463.219-.644.414-.195.181-.333.396-.414.644-.125.238-.183.495-.172.771l.071.532c.095.339.266.633.514.883l.405.313c.312.181.648.272,1.009.273h.008c-.177-.023-.354-.047-.532-.07.061.008.122.022.183.033.206.038.415.061.623.086.036.004.073.007.109.008.038,0,.076-.001.114-.005.179-.019.378-.047.556-.075.01-.002.02-.003.031-.005.021-.004.043-.008.064-.014.049-.012.097-.029.144-.048.195-.078.433-.166.629-.277.233-.126.42-.297.561-.515.177-.193.296-.42.358-.68.083-.266.095-.532.036-.798-.012-.266-.091-.514-.237-.744l-.313-.405c-.25-.248-.544-.419-.883-.514l-.532-.071c-.361.001-.697.092-1.009.273h0Z"/><path class="i" d="M191.262,184.998c-.413,1.341-.144,4.426,2.397,4.689,3.358-.02,3.537-3.75,2.406-5.504-.926-1.436-3.647-2.033-4.803.815Z"/><path class="i" d="M218.043,184.998c.413,1.341.144,4.426-2.397,4.689-3.358-.02-3.537-3.75-2.407-5.504.925-1.436,3.647-2.033,4.804.815Z"/><path class="i" d="M190.335,167.692c-3.729,1.324-6.789,3.83-9.039,7.064-1.121,1.611-1.974,3.392-2.657,5.228-.318.854-.639,1.745-.803,2.642-.252,1.38.595,3.107,2.225,2.962,1.076-.096,2-.851,2-2,0-1.008-.918-2.096-2-2l-.11.01,1.009.273-.085-.057.718.718c.125.219-.025,1.543.211.674.052-.192.106-.383.163-.574.102-.343.211-.684.328-1.023.229-.666.423-1.165.687-1.736.584-1.26,1.379-2.639,2.162-3.645,1.675-2.15,3.87-3.833,6.254-4.68,1.017-.361,1.698-1.365,1.397-2.46-.271-.985-1.438-1.76-2.46-1.397h0Z"/><path class="i" d="M189.819,164.046c.448,2.927,1.939,5.592,3.883,7.79.99,1.119,2.132,2.086,3.339,2.963,1.355.985,2.778,1.85,4.461,2.076,1.041.14,2.044-1.02,2-2-.054-1.203-.884-1.85-2-2,.418.056-.149-.089-.194-.107.266.102-.008-.019-.122-.079-.285-.151-.563-.316-.838-.484-.515-.315-1.001-.667-1.495-1.013-.189-.132.217.179-.073-.056-.134-.109-.268-.217-.4-.328-.22-.185-.435-.376-.646-.571-.462-.429-.902-.881-1.315-1.357-.093-.108-.185-.217-.276-.327-.106-.129-.229-.288-.058-.064-.189-.248-.37-.502-.543-.762-.329-.492-.629-1.004-.893-1.534-.075-.151-.145-.304-.217-.457-.162-.345.051.159-.029-.065-.104-.291-.218-.577-.31-.873-.186-.594-.321-1.2-.415-1.815-.159-1.038-1.516-1.702-2.46-1.397-1.13.366-1.567,1.348-1.397,2.46h0Z"/><path class="i" d="M203.633,164.97c1.308,2.631,2.992,5.156,5.053,7.261,2.012,2.055,4.474,3.143,7.217,3.872,2.336.62,4.773,1.111,6.64,2.759,1.735,1.532,2.832,3.488,3.275,5.754.493,2.524,4.349,1.455,3.857-1.063-1.036-5.302-5.096-9.143-10.169-10.63-2.505-.734-5.288-1.07-7.309-2.868-2.183-1.942-3.818-4.506-5.109-7.102-1.146-2.305-4.598-.281-3.454,2.019h0Z"/><path class="i" d="M184.598,223.712c5.408,5.651,13.859,6.98,21.344,6.893,6.816-.079,15.07-1.946,19.633-7.475,1.627-1.971-1.188-4.816-2.828-2.828-3.921,4.749-10.959,6.236-16.805,6.303-6.425.074-13.846-.842-18.515-5.721-1.783-1.863-4.609.968-2.828,2.828h0Z"/><path class="i" d="M230.989,74.942c.731-.647,1.741-.811,2.681-.624.476.095.836.232,1.229.533-.203-.155.598.756.311.328,1.086,1.62,1.105,3.872.933,5.784s-.884,3.849-1.8,5.525c-1.106,2.022-2.794,4.094-5.324,3.755-1.073-.143-2,1.022-2,2,0,1.2.924,1.856,2,2,5.626.752,9.086-5.346,10.508-9.883,1.271-4.055,1.269-10.405-2.699-13.024-2.678-1.768-6.328-1.292-8.666.778-1.931,1.71.906,4.53,2.828,2.828h0Z"/><path class="i" d="M227.29,89.356c-.343,1.612-.848,3.192-1.439,4.73-.198.516-.429,1.016-.639,1.527-.112.273.195-.39-.058.133-.069.143-.134.288-.203.431-.976,2.02-2.193,3.935-3.492,5.761-3.063,4.305-7.248,8.987-12.607,10.224-2.507.579-1.446,4.437,1.063,3.857,6.226-1.438,11.034-6.625,14.657-11.59,3.284-4.501,5.451-8.724,6.574-14.009.534-2.511-3.321-3.584-3.857-1.063h0Z"/><path class="i" d="M165.404,90.067c2.634,11.763,11.418,24.597,24.11,26.562,1.066.165,2.151-.271,2.46-1.397.261-.948-.323-2.294-1.397-2.46-11.401-1.765-18.957-13.234-21.316-23.769-.562-2.511-4.42-1.448-3.857,1.063h0Z"/><path class="i" d="M191.169,100.004c1.97,1.05,4.091,1.499,6.323,1.494,2.327-.006,4.612-.484,6.472-1.922.832-.643.727-2.161,0-2.828-.882-.81-1.941-.686-2.828,0,.685-.529-.094.029-.314.144-.181.094-.634.209-.042.037-.176.051-.347.132-.523.188-.223.071-.448.131-.676.182-.173.04-.62.208-.786.145l.217-.03c-.082.01-.165.018-.247.026-.143.014-.287.025-.431.034-.346.021-.692.028-1.039.025-.31-.003-.62-.015-.93-.037-.142-.01-.284-.025-.426-.037-.545-.045.413.077-.096-.01-.461-.079-.916-.173-1.364-.308-.191-.058-.377-.127-.566-.193-.469-.163.389.19-.034-.013-.233-.112-.464-.227-.692-.349-.923-.492-2.218-.263-2.736.718-.49.927-.268,2.211.718,2.736h0Z"/><path class="i" d="M196.346,85.362c.263,1.019.515,2.053.664,3.096l-.071-.532c.018.143.025.284.01.427l.071-.532c-.01.066-.025.128-.048.192l.202-.478c-.02.045-.041.083-.068.123l.313-.405c-.032.039-.062.068-.101.099l.405-.313c-.078.05-.161.09-.245.129l.478-.202c-.135.056-.269.096-.413.119l.532-.071c-.13.015-.257.013-.388-.002l.532.071c-.146-.021-.289-.057-.435-.077-.266-.083-.532-.095-.798-.036-.266.012-.514.091-.744.237-.415.243-.811.718-.919,1.195-.117.512-.091,1.087.202,1.541.261.404.695.85,1.195.919.369.051.727.143,1.103.161.596.028,1.143-.159,1.674-.402.666-.306,1.184-.925,1.364-1.639.153-.608.088-1.111-.012-1.721-.164-.997-.391-1.986-.643-2.964-.124-.482-.492-.945-.919-1.195s-1.061-.357-1.541-.202c-1.045.338-1.677,1.375-1.397,2.46h0Z"/><path class="i" d="M180.424,76.423c-.523,1.676-.201,5.539,2.977,5.88,4.203-.009,4.445-4.676,3.038-6.877-1.151-1.802-4.555-2.562-6.016.997Z"/><path class="i" d="M214.08,76.555c.51,1.681.159,5.54-3.023,5.856-4.203-.042-4.408-4.711-2.985-6.9,1.165-1.793,4.574-2.527,6.008,1.044Z"/><path class="i" d="M221.26,27.302c-6.426-4.389-14.145-6.963-21.965-6.789-3.201.071-6.292.028-9.462.618-3.026.563-5.944,1.548-8.743,2.819-10.816,4.912-20.079,15.389-21.884,27.368-.537,3.564-.531,7.195-.277,10.784.246,3.477.7,7.004,2.153,10.204.447.983,1.872,1.223,2.736.718,1.011-.591,1.166-1.749.718-2.736-1.095-2.41-1.382-5.226-1.582-7.84-.223-2.93-.284-5.896-.027-8.826.472-5.369,2.822-10.524,5.982-14.834,6.411-8.745,17.135-14.448,28.03-14.293,3.826.054,7.514.099,11.243,1.094,3.977,1.061,7.666,2.85,11.06,5.168,2.131,1.455,4.134-2.009,2.019-3.454h0Z"/><path class="i" d="M236.799,73.52c2.688-6.447,1.81-14.377.684-21.081-1.35-8.036-5.136-15.378-11.143-20.916-1.89-1.743-4.726,1.079-2.828,2.828,5.552,5.118,8.868,11.73,10.114,19.151,1.015,6.047,1.735,13.151-.684,18.954-.416.997.449,2.2,1.397,2.46,1.152.317,2.043-.396,2.46-1.397h0Z"/><path class="i" d="M216.256,51.18c.57,4.349,2.083,8.364,3.911,12.33,1.544,3.352,3.225,6.624,6.802,8.122.997.417,2.2-.45,2.46-1.397.317-1.153-.396-2.041-1.397-2.46-1.049-.439-1.84-1.475-2.431-2.413-.833-1.322-1.475-2.763-2.123-4.182-1.447-3.168-2.767-6.524-3.222-10-.14-1.071-.819-2-2-2-.972,0-2.141.921-2,2h0Z"/><path class="i" d="M149.054,139.85c3.125-3.486,7.029-6.427,11.076-8.768,3.784-2.188,8.21-3.391,12.353-4.687,2.449-.766,1.403-4.629-1.063-3.857-4.466,1.397-9.231,2.732-13.309,5.09-4.318,2.498-8.552,5.674-11.886,9.393-1.714,1.912,1.106,4.75,2.828,2.828h0Z"/><path class="i" d="M168.606,71.871c-2.177-1.958-5.27-2.424-7.943-1.211-1.932.877-3.109,2.685-3.66,4.679-1.279,4.626-.106,10.041,2.532,13.999,1.792,2.688,4.621,5.101,8.068,4.667,1.072-.135,2-.823,2-2,0-.976-.921-2.136-2-2-2.531.318-4.199-1.784-5.287-3.81-.905-1.684-1.593-3.625-1.749-5.541-.156-1.905-.124-4.177.986-5.775-.262.377.063-.06.118-.116.007-.007.428-.373.201-.204.358-.267.674-.398,1.092-.49.992-.218,2.045-.062,2.814.63,1.909,1.717,4.747-1.103,2.828-2.828h0Z"/><path class="i" d="M230.48,129.919c3.815,1.426,7.546,3.057,11.156,4.946,3.302,1.728,6.593,3.548,9.258,6.19,5.514,5.468,7.77,12.928,9.798,20.213,2.273,8.164,4.691,16.306,6.358,24.622,1.436,7.161,2.7,14.67,2.034,21.99-.355,3.9-1.518,7.582-3.701,10.846-2.356,3.524-5.607,6.377-8.849,9.063-1.984,1.644.859,4.46,2.828,2.828,6.074-5.033,11.572-10.837,13.167-18.828,1.515-7.584.381-15.413-.883-22.947-1.486-8.853-3.98-17.486-6.396-26.119-2.234-7.983-4.369-16.139-9.807-22.623-2.863-3.415-6.483-5.807-10.36-7.927-4.35-2.378-8.899-4.378-13.541-6.113-2.414-.903-3.457,2.962-1.063,3.857h0Z"/><path class="i" d="M243.267,203.295c1.836-.433,3.589-.573,5.656-.405.8.065,1.609.193,2.595.435.992.244,1.96.569,2.903.96.969.402,2.241-.434,2.46-1.397.266-1.167-.359-2.03-1.397-2.46-4.184-1.736-8.885-2.027-13.281-.99-1.019.24-1.721,1.459-1.397,2.46.344,1.063,1.368,1.654,2.46,1.397h0Z"/><path class="i" d="M211.999,112.717c.401,2.537.899,5.106,2.157,7.378.966,1.745,2.525,3.035,4.166,4.119,3.732,2.465,8.046,4.007,12.158,5.705.999.412,2.199-.446,2.46-1.397.316-1.149-.394-2.046-1.397-2.46-3.664-1.513-7.441-2.923-10.808-5.047-.762-.481-1.245-.818-1.813-1.332-.268-.242-.515-.499-.759-.764-.317-.345.097.172-.14-.167-.123-.177-.236-.36-.343-.546-1.133-1.968-1.476-4.341-1.825-6.552-.169-1.068-1.503-1.66-2.46-1.397-1.138.313-1.566,1.389-1.397,2.46h0Z"/><path class="i" d="M172.483,126.395c3.148-1.027,6.379-1.998,9.344-3.496,1.413-.714,3.037-1.558,3.507-3.177.235-.809.316-1.692.463-2.521.167-.934.333-1.868.5-2.802.183-1.026-.277-2.205-1.397-2.46-.976-.222-2.264.296-2.46,1.397-.291,1.634-.562,3.273-.874,4.903-.008.042-.107.404-.089.42-.039-.034.218-.332.225-.318.001.002-.649.402-.721.448-.475.3-.973.563-1.479.808-.268.13-.54.254-.812.374-.115.051-.387.165-.128.057-.15.062-.301.123-.451.184-.675.27-1.357.523-2.042.767-1.539.548-3.094,1.053-4.648,1.56-.993.324-1.74,1.399-1.397,2.46.321.992,1.395,1.744,2.46,1.397h0Z"/><path class="i" d="M171.628,132.118c7.676,3.613,15.498,6.062,24.015,6.455,7.336.339,15.317.142,22.376-2.122,2.408-.772,4.679-1.871,6.89-3.087,2.256-1.241.24-4.697-2.019-3.454-4.038,2.221-8.002,3.554-12.771,4.146-7.793.968-16.103,1.078-23.78-.743-4.404-1.045-8.605-2.727-12.691-4.651-2.316-1.09-4.349,2.357-2.019,3.454h0Z"/><path class="i" d="M158.011,204.379c1.567,6.092,3.442,12.099,5.618,18.002.373,1.013,1.356,1.7,2.46,1.397.975-.268,1.772-1.442,1.397-2.46-2.176-5.902-4.051-11.91-5.618-18.002-.641-2.491-4.5-1.435-3.857,1.063h0Z"/><path class="i" d="M195.891,64.4c-.332,1.37.074,2.813,1.328,3.577.956.583,2.222.63,3.318.601,2.785-.074,5.597-.943,7.964-2.406,3.927-2.428,6.548-6.978,7.995-11.255.914-2.7,1.179-5.588,1.294-8.42.104-2.574-3.896-2.569-4,0-.182,4.498-1.068,8.636-3.579,12.315-1.447,2.12-3.254,3.937-5.668,4.898-1.113.443-2.316.763-3.514.844-.495.034-.996.043-1.492.005-.112-.009-.408.039-.33-.046.132-.144.601.704.542.949.606-2.501-3.25-3.568-3.857-1.063h0Z"/><path class="i" d="M179.854,64.829c-.305,4.378,4.785,4.298,7.858,3.925,3.54-.429,6.97-1.895,9.595-4.333,2.482-2.305,4.47-5.325,5.757-8.444,1.266-3.067,1.71-6.36,2.089-9.634.124-1.075-1.008-2-2-2-1.184,0-1.875.922-2,2-.292,2.53-.675,5.065-1.524,7.477-.835,2.372-2.246,4.555-3.885,6.449-1.765,2.039-3.932,3.424-6.54,4.149-1.036.288-2.07.428-3.143.458-.562.016-1.127.014-1.689-.005-.075-.003-.743-.093-.774-.05.227-.322.192.94.257.008.075-1.079-.973-2-2-2-1.145,0-1.925.918-2,2h0Z"/><path class="i" d="M171.776,71.484c4.05-2.703,8.994-3.693,12.87-6.635,3.957-3.003,5.908-7.564,7.062-12.268.613-2.5-3.243-3.566-3.857-1.063-.984,4.013-2.506,7.989-6.009,10.453-1.886,1.327-4.022,2.059-6.126,2.967-2.058.889-4.091,1.845-5.959,3.092-.897.599-1.286,1.765-.718,2.736.521.891,1.834,1.32,2.736.718h0Z"/><path class="e" d="M247.164,236.951l-1.261-1.261c-1.472,2.115-3.274,3.998-5.415,5.402-.532.349-1.117.739-2.021.705-.52-.02-1.421-.269-1.79-.635-.939-.93-1.343-1.788-1.481-3.395-1.546,1.596-2.461,2.436-4.669,2.092-.527-.082-1.449-.636-1.913-1.191-.645-.772-.924-2.472-.693-3.188,0,0,.193-.598.477-1.471-1.231.587-2.802.575-3.758-.358-.775-.756-.947-1.97-.708-3.025s.826-1.994,1.403-2.91c1.04-1.65,2.08-3.299,3.12-4.949,0,0,.323-.513.647-1.026l-2.35,1.523c-2.526,1.637-5.006-1.315-4.038-3.851.544-1.426,1.313-3.332,2.304-4.655,1.53-2.041,5.148-4.777,7.95-2.86l5.217-.364c2.779-.387,4.734,1.238,6.918,2.233,2.18.993,4.008,2.958,5.366,4.8,1.773,2.405,2.847,4.694,2.755,6.895-.183,4.389-2.503,8.912-6.061,11.489"/><path class="i" d="M233.978,210.17c-3.416-2.233-7.695-.002-10.041,2.757-1.338,1.574-2.162,3.433-2.914,5.339-.693,1.757-.734,3.731.408,5.332,1.483,2.077,4.105,2.758,6.33,1.392.891-.547,1.312-1.815.718-2.736-.577-.894-1.782-1.303-2.736-.718-.094.061-.191.117-.291.169.236-.088.251-.095.045-.021-.094.03-.189.055-.285.074.298-.031.335-.04.113-.024-.091.002-.181,0-.272-.009.31.047.356.048.138.001-.519-.208.145.155-.13-.053-.077-.045-.151-.093-.223-.145.226.179.258.198.095.055-.066-.063-.128-.128-.188-.196.167.229.187.255.061.078-.075-.127-.264-.337-.272-.488.108.262.124.288.05.081l-.04-.137c-.025-.093-.046-.186-.063-.28.034.293.041.326.022.099-.005-.098-.005-.196-.001-.294.018-.226.01-.197-.023.087-.083-.292.296-.936.402-1.205.086-.218.174-.436.264-.653-.163.392.134-.3.164-.366.193-.426.399-.846.623-1.257.217-.397.462-.771.712-1.148.152-.205.135-.186-.051.06.057-.071.114-.141.173-.21.124-.145.252-.287.383-.425.284-.298.592-.564.898-.839.174-.14.164-.135-.03.014.086-.065.172-.129.26-.191.154-.109.311-.214.472-.314s.323-.195.49-.285c.086-.046.721-.326.247-.139.328-.13.838-.376,1.199-.343-.542-.05.099.011.226.013.101.001.201.006.302.015-.281-.043-.308-.045-.082-.003.103.031.716.254.258.042.2.093.386.203.57.323.878.574,2.249.205,2.736-.718.528-.999.219-2.124-.718-2.736h0Z"/><path class="i" d="M229.403,217.515l-4.507,7.148c-1.363,2.162-3.288,4.55-3.041,7.264.249,2.73,2.484,4.725,5.264,4.452,2.507-.246,4.401-2.031,6.006-3.839,1.869-2.106,3.389-4.494,4.966-6.817.607-.894.17-2.217-.718-2.736-.987-.577-2.128-.179-2.736.718-1.398,2.059-2.714,4.174-4.34,6.008-.714.805-1.57,1.72-2.41,2.285-.085.057-.677.337-.47.264-.135.046-.272.085-.41.116-.227.045-.278.055-.153.032-.243.026-.506.013-.717-.117-.229-.142-.235-.165-.278-.469-.053-.245-.06-.282-.021-.113-.007-.146-.007-.292.002-.438-.036.168-.029.13.021-.116.04-.175.089-.348.147-.518.441-1.228,1.329-2.349,2.02-3.445l4.829-7.659c.576-.914.192-2.204-.718-2.736-.961-.562-2.159-.199-2.736.718h0Z"/><path class="i" d="M225.993,234.947c-.5,1.876.172,4.328,1.672,5.578,1.77,1.476,4.127,1.827,6.231.849,1.333-.62,2.372-1.817,3.363-2.871s1.958-2.124,2.913-3.208c1.486-1.687,2.93-3.41,4.284-5.206.651-.863.138-2.236-.718-2.736-1.024-.599-2.084-.148-2.736.718-.409.542-1.103,1.404-1.711,2.131-.661.791-1.336,1.572-2.018,2.345-.97,1.1-1.954,2.19-2.962,3.255-.509.537-1.018,1.083-1.572,1.574-.04.036-.498.371-.15.134-.184.125-.371.235-.566.343.373-.206-.013-.002-.13.03-.108.029-.218.053-.329.072.243-.033.242-.04-.003-.021-.199-.015-.397.005-.596-.02.329.041-.475-.201-.119-.036-.206-.095-.381-.242-.576-.354.111.07.076.031-.105-.119.108.172.102.166-.016-.019l-.086-.155c.071.198.065.184-.018-.043-.069-.221-.128-.44-.177-.666-.026-.147-.027-.128-.002.055-.013-.12-.021-.241-.024-.362-.003-.11,0-.22.007-.33-.048.287-.048.329,0,.126.278-1.043-.35-2.173-1.397-2.46-1.039-.285-2.181.349-2.46,1.397h0Z"/><path class="i" d="M233.566,239.883c.668,1.859,1.981,3.426,4.002,3.799,1.988.367,3.526-.5,5.049-1.664,2.847-2.176,5.079-5.024,6.767-8.172.494-.922.261-2.219-.718-2.736-.929-.491-2.208-.267-2.736.718-.655,1.222-1.391,2.392-2.217,3.505-.198.267.013-.011-.111.143-.103.128-.207.257-.312.383-.232.278-.47.551-.715.817-.467.507-.958.992-1.474,1.448-.245.217-.496.428-.753.631.241-.19-.098.072-.142.104-.132.097-.265.192-.4.285-.253.175-.514.337-.773.501-.175.111-.273.136-.022.044-.136.05-.27.082-.409.121-.139.029-.116.025.07-.014h-.203c-.452-.057.435.14-.081-.021-.139-.043-.281-.086-.422-.125-.252-.07.293.093-.053-.044.199.168.236.191.11.069-.069-.069-.136-.139-.201-.212-.106-.111-.156-.192-.034-.022-.104-.145-.188-.295-.282-.446-.219-.35.075.26-.082-.177-.353-.982-1.378-1.747-2.46-1.397-.967.313-1.776,1.406-1.397,2.46h0Z"/><path class="i" d="M238.185,213.533c2.366-.25,4.628,1.194,6.622,2.326,2.399,1.361,4.309,3.866,5.558,6.278,2.278,4.398-.509,10.32-4.211,13.087-.864.646-1.306,1.729-.718,2.736.498.852,1.866,1.368,2.736.718,5.225-3.904,8.853-11.449,6.016-17.789-1.418-3.169-3.925-6.266-6.846-8.167-1.276-.83-2.755-1.524-4.135-2.169-1.599-.746-3.244-1.208-5.022-1.021-1.074.113-2,.838-2,2,0,.993.919,2.114,2,2h0Z"/><path class="e" d="M84.492,131.885c-2.323-2.179-5.225-3.793-8.311-3.405-4.173.524-7.195,4.872-7.055,9.075.172,5.157,4.268,9.708,8.884,11.654,4.119-1.215,8.051-2.985,11.645-5.238l1.615-2.745c1.081-1.837,1.454-4.078,1.026-6.166-.321-1.565-1.367-3.234-2.962-3.314-1.279-.065-2.346.907-3.252,1.812-.492-.578-1.024-1.143-1.59-1.674Z"/><path class="h" d="M148.714,158.157c-1.448-5.805-3.742-11.378-7.462-16.018-5.111-6.376-12.517-10.219-20.597-9.004-3.075.462-6.792,1.211-9.55,2.648-5.839,3.043-11.073,6.475-14.79,13.022-1.089-2.335-2.404-4.58-3.918-6.692-4.594,3.367-9.872,5.894-15.465,7.4-.457,6.312,3.385,20.656,4.852,25.629.969,3.285,2.375,6.73,5.36,8.639,1.554.994,3.414,1.477,5.27,1.681l-.445,1.427c-7.372.762-12.714,9.504-10.026,16.412l4.164,10.157,33.939,4.91c11.445-1.045,21.363-9.482,26.287-19.867,4.923-10.385,5.413-22.408,3.682-33.77-.335-2.199-.758-4.401-1.299-6.572Z"/><path class="i" d="M106.208,179.117c-3.087,2.808-7.199,4.374-11.364,4.454-2.136.041-4.444-.216-6.328-1.297-1.631-.936-2.703-2.47-3.512-4.131-1.258-2.586-1.893-5.551-2.623-8.324-.888-3.372-1.701-6.767-2.37-10.19-.645-3.3-1.297-6.738-1.081-10.116l-1.468,1.929c5.717-1.568,11.143-4.118,15.943-7.602l-2.736-.718c2.158,3.043,3.935,6.324,5.209,9.833.872,2.401,4.739,1.364,3.857-1.063-1.394-3.838-3.25-7.456-5.612-10.788-.577-.813-1.801-1.397-2.736-.718-4.541,3.296-9.577,5.715-14.988,7.198-.893.245-1.412,1.044-1.468,1.929-.22,3.444.434,6.98,1.065,10.351.703,3.751,1.591,7.469,2.565,11.158.889,3.368,1.706,6.906,3.419,9.965,2.52,4.503,7.027,6.467,12.053,6.582,5.509.126,10.935-1.923,15.004-5.624,1.908-1.736-.927-4.558-2.828-2.828h0Z"/><path class="i" d="M91.968,184.888c-4.398.501-8.13,3.058-10.457,6.802-2.212,3.56-2.998,8.162-1.498,12.141.381,1.01,1.35,1.702,2.46,1.397.969-.266,1.78-1.444,1.397-2.46-.605-1.605-.762-2.974-.573-4.522.183-1.501.754-3.019,1.558-4.357.74-1.232,1.886-2.526,2.94-3.27.339-.239.689-.464,1.051-.668.18-.102.364-.199.549-.29.018-.009.572-.26.278-.137.414-.173.846-.311,1.28-.425.202-.053.405-.1.61-.141.073-.014.721-.106.404-.07,1.073-.122,2-.832,2-2,0-.986-.92-2.123-2-2h0Z"/><path class="i" d="M107.955,134.91c-4.006.678-8.034-3.23-9.597-6.575-2.028-4.34-1.029-9.491-.765-14.077.251-4.361.255-8.531,1.719-12.711,1.302-3.719,3.642-7.145,7.073-9.183,4.093-2.431,8.967-3.07,13.654-2.983,3.698.069,7.372.641,10.877,1.843,6.692,2.294,12.124,7.203,13.858,14.208,1.192,4.814.835,10.214-.282,15.006-1.229,5.274-3.926,9.612-8.289,12.877-.863.646-1.307,1.729-.718,2.736.498.851,1.866,1.368,2.736.718,4.441-3.323,7.792-7.537,9.472-12.864,1.626-5.154,2.166-10.916,1.512-16.283-1.062-8.709-6.526-15.722-14.542-19.203-8.504-3.693-19.396-4.407-27.991-.677-4.564,1.981-8.087,5.621-10.155,10.126-2.089,4.552-2.623,9.252-2.816,14.196-.243,6.218-1.609,12.823,1.37,18.627,1.297,2.527,3.484,4.655,5.795,6.268,2.451,1.71,5.22,2.304,8.152,1.808,1.066-.18,1.662-1.494,1.397-2.46-.31-1.129-1.391-1.578-2.46-1.397h0Z"/><path class="i" d="M115.229,114.162c-.63.021-1.26-.004-1.885-.085l.532.071c-.252-.034-.503-.077-.753-.129-.266-.083-.532-.095-.798-.036-.266.012-.514.091-.744.237-.233.126-.42.297-.561.515-.177.193-.296.42-.358.68-.117.512-.091,1.087.202,1.541.273.423.687.812,1.195.919,1.038.218,2.109.32,3.17.285.523-.017,1.04-.211,1.414-.586.195-.181.333-.396.414-.644.125-.238.183-.495.172-.771-.023-.517-.193-1.054-.586-1.414-.384-.352-.879-.603-1.414-.586h0Z"/><path class="i" d="M101.293,113.384c-.657.061-1.332.042-1.986-.044l.532.071c-.13-.018-.259-.038-.386-.069-.513-.126-1.081-.068-1.541.202-.233.126-.42.297-.561.515-.177.193-.296.42-.358.68-.117.512-.091,1.087.202,1.541.278.431.684.794,1.195.919.319.078.655.109.978.149.205.025.411.041.617.052.435.023.873.024,1.307-.016.275.01.532-.047.771-.172.248-.081.463-.219.644-.414.195-.181.333-.396.414-.644.125-.238.183-.495.172-.771-.023-.517-.193-1.054-.586-1.414l-.405-.313c-.312-.181-.648-.272-1.009-.273h0Z"/><path class="i" d="M105.621,126.196c-.752-.154-1.528-.216-2.293-.269-.275-.01-.532.047-.771.172-.248.081-.463.219-.644.414-.195.181-.333.396-.414.644-.125.238-.183.495-.172.771l.071.532c.095.339.266.633.514.883l.405.313c.312.181.648.272,1.009.273.439.03.878.065,1.314.123l-.532-.071c.15.021.299.044.448.074.266.083.532.095.798.036.266-.012.514-.091.744-.237.233-.126.42-.297.561-.515.177-.193.296-.42.358-.68l.071-.532c-.001-.361-.092-.697-.273-1.009l-.313-.405c-.25-.248-.544-.419-.883-.514h0Z"/><path class="i" d="M131.949,120.277c.058-.037.524-.271.125-.111.166-.066.337-.107.509-.15.35-.088-.109-.037.097-.005.058.009.607.039.371,0-.259-.043.217.066.266.078.455.118-.215-.169.174.076.099.062.444.37.149.079.044.044.321.381.168.155-.164-.241.103.229-.021-.06.038.089.132.579.086.224.05.386.041.789.039,1.177-.001.329-.011.658-.035.987-.014.195-.028.392-.056.586.058-.4-.05.218-.054.239-.072.351-.167.697-.286,1.035-.036.102-.175.41-.058.164-.086.183-.178.362-.279.537-.098.17-.205.336-.316.499-.027.039-.309.422-.153.222.14-.181-.192.218-.232.262-.098.107-.199.211-.304.31-.025.023-.46.39-.145.148-.149.115-.312.223-.474.319-.104.062-.212.118-.321.172-.168.082-.305.117-.055.028-.341.122-.682.237-1.034.326-.172.044-.346.074-.518.115-.428.101.336-.025-.1.013-1.04.09-2.051.855-2,2,.045,1.006.884,2.097,2,2,2.073-.179,4.112-.919,5.601-2.415,1.567-1.574,2.426-3.601,2.703-5.78.262-2.063.318-4.56-1.327-6.09-1.733-1.611-4.542-1.87-6.538-.592-.88.563-1.319,1.803-.718,2.736.568.88,1.794,1.321,2.736.718h0Z"/><path class="i" d="M92.997,142.236c1.638-2.932,2.19-7.034.304-10.004-.884-1.392-2.276-2.423-3.967-2.486-1.876-.07-3.406,1.154-4.666,2.398h2.828c-2.469-2.852-5.687-5.273-9.54-5.675-3.635-.38-6.932,1.599-8.921,4.544-4.451,6.591-.438,14.591,5.477,18.587,2.139,1.445,4.143-2.019,2.019-3.454-4.09-2.763-7.145-8.183-4.214-12.849,1.174-1.869,3.202-3.116,5.456-2.853,2.811.329,5.128,2.487,6.895,4.528.711.821,2.103.717,2.828,0,.383-.378,1.194-1.38,1.837-1.227.434.104.741.873.867,1.219.621,1.71.203,3.712-.657,5.252-1.257,2.25,2.197,4.269,3.454,2.019h0Z"/><path class="i" d="M98.684,148.737c2.332-3.664,5.499-6.542,9.172-8.826,1.778-1.106,3.654-2.261,5.614-3.012,2.224-.852,4.59-1.334,6.935-1.714,8.895-1.441,16.708,3.72,21.31,11.052,5.098,8.122,6.864,18.316,7.17,27.768.309,9.534-1.345,19.394-6.529,27.553-4.902,7.715-13.025,13.894-22.312,14.808-1.075.106-2,.843-2,2,0,1,.919,2.106,2,2,9.363-.921,17.681-6.128,23.414-13.482,6.554-8.408,9.283-19.011,9.454-29.548.089-5.448-.475-10.925-1.512-16.271-.998-5.144-2.572-10.227-5.071-14.851-4.607-8.525-13.047-15.528-23.159-15.296-10.934.251-22.079,6.59-27.942,15.8-1.386,2.178,2.074,4.187,3.454,2.019h0Z"/><path class="i" d="M106.449,98.592c-.534.682-1.089,1.355-1.778,1.888l.405-.313c-.345.263-.715.485-1.105.673-.233.126-.42.297-.561.515-.177.193-.296.42-.358.68-.083.266-.095.532-.036.798.012.266.091.514.237.744.275.427.685.803,1.195.919l.532.071c.361-.001.697-.092,1.009-.273.719-.346,1.378-.827,1.962-1.369.491-.456.913-.978,1.325-1.504.195-.181.333-.396.414-.644.125-.238.183-.495.172-.771,0-.491-.218-1.076-.586-1.414-.381-.35-.882-.61-1.414-.586l-.532.071c-.339.095-.633.266-.883.514h0Z"/><path class="i" d="M113.203,101.683c-.169.264-.351.518-.543.766l.313-.405c-.699.896-1.504,1.733-2.404,2.429l.405-.313c-.138.106-.279.208-.426.303-.435.281-.779.688-.919,1.195-.132.479-.072,1.116.202,1.541.275.427.685.803,1.195.919s1.088.092,1.541-.202c.767-.497,1.472-1.117,2.112-1.768.733-.745,1.414-1.567,1.978-2.448.273-.426.334-1.061.202-1.541-.128-.464-.486-.967-.919-1.195-.464-.245-1.026-.368-1.541-.202-.508.164-.905.466-1.195.919h0Z"/><path class="e" d="M154.068,190.923c.549-.557,1.082-1.148,1.601-1.775,4.328-5.225,4.094-11.01,2.699-16.772-1.186-3.246-4.584-6.942-6.763-7.461-2.95-.702-4.519-.455-7.279.243-3.464.875-6.991,1.39-10.517,1.092-2.084-.176-4.627.101-6.74.546-2.305.485-3.302,1.854-3.033,4.003.303,2.426,3.033,4.185,6.054,4.469,0,0,1.651.155,4.155.39-1.781.913-3.622,1.695-5.512,2.312-2.587.844-5.12,1.574-7.711,2.654-1.316.548-2.3,1.946-2.215,3.399.142,2.442,1.92,4.261,4.725,3.792l3.074-.514c-.248,1.02-.495,2.041-.495,2.041-.329,1.355.051,2.945,1.109,3.763,1.782,4.99,7.508,5.669,12.249,4.98,5.743-.835,10.574-3.075,14.6-7.162Z"/><path class="i" d="M130.09,173.268c-1.461-.167-5.081-1.552-4-3.737.375-.759,1.588-.833,2.322-.965,1.646-.297,3.33-.429,5.002-.344,3.739.191,7.326-.142,10.972-1.019,2.415-.58,5.405-1.314,7.588.071,4.701,2.982,6.098,9.537,5.022,14.689-1.185,5.674-6.224,10.192-11.393,12.403-2.766,1.183-5.876,1.903-8.888,1.943-2.587.035-5.565-.459-7.086-2.79-1.402-2.147-4.866-.145-3.454,2.019,4.025,6.166,12.851,5.335,18.936,3.271,6.839-2.319,13.669-7.794,15.563-15.023.978-3.732.607-7.634-.238-11.352-.753-3.312-3.444-6.555-6.197-8.45-2.957-2.034-6.943-1.616-10.23-.808-2.174.535-4.355.983-6.595,1.112-2.182.126-4.349-.188-6.528-.033-3.764.267-8.745.991-8.886,5.738-.134,4.487,4.19,6.828,8.092,7.275,1.075.123,2-1.007,2-2,0-1.184-.922-1.876-2-2h0Z"/><path class="i" d="M136.08,172.344c-2.6,1.566-5.312,2.864-8.201,3.803-1.497.486-3.003.944-4.492,1.457-1.356.467-2.962.896-4.137,1.735-2.426,1.731-3.041,4.798-1.744,7.432,1.254,2.545,3.917,3.35,6.558,2.973,1.07-.153,1.657-1.514,1.397-2.46-.316-1.15-1.387-1.55-2.46-1.397-.691.099-1.07-.008-1.575-.409.222.176-.209-.25-.208-.247.172.211-.159-.283-.162-.287-.096-.18-.167-.371-.234-.761.036.207-.02-.408-.019-.414,0-.004.08-.377.117-.46.091-.205.271-.428.461-.585.739-.612,1.996-.888,2.91-1.206,2.319-.805,4.699-1.442,6.985-2.342,2.369-.933,4.643-2.063,6.824-3.376,2.203-1.327.194-4.787-2.019-3.454h0Z"/><path class="i" d="M123.532,189.815c2.725-.19,5.394-.924,7.976-1.78,2.535-.84,5.028-1.829,7.457-2.94.982-.45,1.224-1.87.718-2.736-.59-1.009-1.75-1.169-2.736-.718-.467.214-.937.42-1.408.623-.332.143.08-.032-.13.055-.12.05-.24.1-.36.149-.28.115-.56.228-.841.339-1.241.491-2.495.951-3.762,1.371-1.243.412-2.5.787-3.774,1.096-.59.143-1.184.271-1.782.376-.132.023-.887.131-.489.083-.289.035-.578.062-.869.082-1.078.075-2,.865-2,2,0,1.024.917,2.076,2,2h0Z"/><path class="e" d="M94.294,207.855c.967-.803,2.376-1.336,4.538-1.868,3.906-1.159,7.488-2.088,11.247-3.719,1.856-.806,3.417-2.282,5.391-2.725,1.975-.444,4.389.199,5.216,2.046.522,1.165.297,2.556-.291,3.689s-3.651,4.751-4.554,5.652l-.268.267c.356.443.643.8.643.8,1.756,2.276,4.778,3.264,7.663,3.36s4.601.035,7.329-.914c1.69-.588,3.844-1.009,5.144-.588s2.593,1.628,2.645,2.988c.028.725-.812,2.015-1.176,2.645-.803,1.393-3.165,2.664-6.202,3.741-.599,1.564-.951,2.481-.951,2.481-2.229,5.822-8.167,10.313-15.272,11.532-6.589,1.036-16.24,1.245-19.046.403-.785-.236-2.756-1.218-3.557-1.395-1.541-.341-5.158-.405-8.775-.655,0,0-.657-.045-1.759-.119.763-8.184,1.532-18.807,1.072-24.816.768.091,2.059.24,2.059.24,1.621.187,3.929.686,5.238.561l.848-.081c.79-1.241,1.613-2.471,2.713-3.438.033-.029.067-.058.102-.087Z"/><path class="i" d="M124.182,188.811c-.508,2.373.211,5.119,2.497,6.316,1.838.963,4.145.971,6.113.431,3.326-.913,6.553-2.497,9.654-3.986.974-.467,1.231-1.858.718-2.736-.582-.995-1.759-1.187-2.736-.718-2.673,1.283-4.933,2.323-7.668,3.259-1.253.429-2.189.673-3.332.496.12.019-.339-.078-.397-.094-.014-.004-.558-.219-.333-.106-.066-.033-.49-.352-.276-.164l-.144-.148c.077.107.077.104.002-.011-.168-.261-.219-.363-.288-.809.046.294.005-.337.005-.337-.008-.372-.041.058.042-.33.226-1.055-.313-2.162-1.397-2.46-.996-.274-2.233.336-2.46,1.397h0Z"/><path class="i" d="M84.022,237.595c2.246.15,4.498.217,6.741.399,1.444.117,2.585.572,3.912,1.131,2.549,1.074,5.453,1.045,8.18,1.042,7.397-.009,15.639-.299,21.997-4.514,3.501-2.321,6.201-5.499,7.749-9.41.398-1.005-.436-2.196-1.397-2.46-1.137-.312-2.061.389-2.46,1.397-2.481,6.266-9.086,9.583-15.438,10.354-3.463.42-6.962.63-10.451.634-1.469.002-2.944-.028-4.407-.17-.715-.07-1.534-.24-2.417-.608-1.629-.677-2.981-1.179-4.748-1.349-2.412-.233-4.843-.283-7.26-.444-2.57-.172-2.559,3.829,0,4h0Z"/><path class="i" d="M114.803,213.411c2.299,2.832,5.97,3.855,9.482,3.959,1.674.049,3.336-.004,4.985-.318,1.728-.33,3.347-1.144,5.102-1.334.591-.064,1.177-.088,1.711.193.284.149.567.358.757.624.05.07.168.418.167.222.002.464-.574,1.163-.801,1.536-.051.084-.348.527-.238.39.09-.112-.305.293-.417.392-.582.516-1.846,1.169-2.807,1.588-1.276.556-2.614.986-3.947,1.38-3.657,1.082-7.421,1.82-11.199,2.328-1.072.144-1.655,1.52-1.397,2.46.318,1.157,1.385,1.541,2.46,1.397,3.666-.493,7.318-1.204,10.873-2.232,2.983-.863,6.177-1.902,8.614-3.897.976-.799,1.654-1.897,2.203-3.02.925-1.892.743-3.761-.683-5.371-1.315-1.485-3.255-2.14-5.201-1.995-2.075.154-3.923.985-5.931,1.417-1.828.393-3.932.402-5.78.145-2.019-.281-3.829-1.092-5.126-2.689-.681-.839-2.12-.708-2.828,0-.83.83-.683,1.987,0,2.828h0Z"/><path class="i" d="M92.792,213.044c.89-1.404,1.803-3.137,3.29-3.999,1.513-.877,3.403-1.169,5.063-1.652,4.03-1.174,8.291-2.264,11.9-4.472,1.332-.815,2.676-1.745,4.311-1.459,1.453.254,1.958,1.348,1.364,2.69-.424.957-1.242,1.824-1.898,2.623-.768.935-1.546,1.876-2.395,2.74-1.805,1.838,1.021,4.669,2.828,2.828,1.664-1.694,3.334-3.628,4.61-5.632,1.848-2.903,1.335-6.922-1.908-8.552-1.499-.754-3.229-.903-4.862-.577-1.835.366-3.347,1.507-4.943,2.407-3.447,1.946-7.625,2.85-11.404,3.935-1.804.518-3.705.934-5.26,2.043-1.797,1.281-2.989,3.223-4.151,5.056-1.382,2.181,2.078,4.19,3.454,2.019h0Z"/><path class="i" d="M85.394,212.9c.123.014.246.03.368.046l-.532-.071c.874.117,1.743.267,2.617.386.915.124,1.859.282,2.785.201.54-.047,1.02-.191,1.414-.586.347-.347.608-.916.586-1.414-.023-.517-.193-1.054-.586-1.414-.371-.341-.892-.631-1.414-.586-.75.065-1.511-.032-2.254-.13l.532.071c-1.174-.158-2.34-.365-3.516-.503-.474-.056-1.092.264-1.414.586-.347.347-.608.916-.586,1.414.023.517.193,1.054.586,1.414l.405.313c.312.181.648.272,1.009.273h0Z"/><path class="i" d="M42.336,202.947c6.968,1.594,14.1,2.171,21.163,3.184,5.846.838,11.722,1.122,17.592,1.718,1.076.109,2-.997,2-2,0-1.172-.921-1.891-2-2-5.659-.574-11.329-.832-16.964-1.638-6.919-.99-13.901-1.56-20.727-3.121-2.506-.573-3.576,3.283-1.063,3.857h0Z"/><path class="i" d="M81.079,207.825c-.233-.172-.528-.657-.259-.141.178.341-.065-.199-.021-.056.045.148.098.293.14.443.092.328.156.662.217.996.015.08.084.539.059.359-.02-.141.044.391.056.513.219,2.172.223,4.367.191,6.547-.083,5.582-.504,11.161-.993,16.721-.24,2.727-.507,5.451-.792,8.174-.113,1.076,1,2,2,2,1.175,0,1.887-.921,2-2,.58-5.519,1.088-11.047,1.435-16.586.318-5.067.704-10.291.105-15.352-.221-1.87-.504-3.881-2.118-5.072-.87-.642-2.232-.145-2.736.718-.595,1.017-.154,2.093.718,2.736h0Z"/></g></g></svg>